<svg width="1440" height="337" viewBox="0 0 1440 337" fill="none" xmlns="http://www.w3.org/2000/svg">
<path d="M-4.49999 29C0.500008 25 6.00001 22.5 12 21.5H13.5C18.8333 21.5 22.3333 23.8333 24 28.5C26 32.1666 27.3333 37.1667 28 43.5C28.6667 46.8333 29 49.1666 29 50.5C33.6667 66.8333 37.8333 81.1667 41.5 93.5C45.5 105.5 48.8333 115.667 51.5 124C54.1667 133 58.3333 146.667 64 165C69.6667 183 74.5 199 78.5 213C79.8333 217.333 80.6667 220.167 81 221.5C81 212.167 80.6667 198.167 80 179.5L79.5 158.5L79 145.5C78.6667 131.833 78 120.5 77 111.5C76.3333 102.5 74.8333 93.6667 72.5 85C72.5 76.3333 73.8333 68.6666 76.5 62L82.5 49C86.1667 42 91.6667 35 99 28C104.333 23.3333 110.167 20.5 116.5 19.5C122.167 19.5 126.5 22 129.5 27C134.5 40 137.333 54.1666 138 69.5C138 78.8333 138.167 85.6666 138.5 90C138.5 107.333 138.667 120.167 139 128.5C139 146.833 138.667 174 138 210C138 228.333 137 255.5 135 291.5L134.5 302C134.167 305.667 133.667 312 133 321C132.667 330 132 338 131 345C128 367.333 124.333 385 120 398C116.333 407.667 113 415.167 110 420.5C106.667 426.833 101 433.667 93 441C87.3333 446 81.8333 448.5 76.5 448.5C74.5 448.5 72.5 448 70.5 447C65.1667 444.333 60.6667 437.333 57 426C54 416.667 51 405.667 48 393C46 383.667 44.6667 376.667 44 372C40.3333 353.333 37.6667 340.667 36 334C32.3333 315.333 26.1667 287.667 17.5 251C6.5 319 -10.5 375.333 -33.5 420C-35.8333 425 -39.1667 429.667 -43.5 434C-47.5 438.333 -51.6667 441.5 -56 443.5C-58.3333 444.833 -61 445.5 -64 445.5C-66.6667 445.5 -68.6667 445.167 -70 444.5C-74.3333 441.5 -76.5 436.333 -76.5 429C-76.5 426 -76.3333 423.833 -76 422.5C-74.3333 414.167 -71.6667 406.833 -68 400.5L-67 398.5C-61 384.833 -55.6667 369.833 -51 353.5C-45.6667 331.167 -41.5 308.167 -38.5 284.5C-35.5 260.833 -32.8333 233.833 -30.5 203.5C-29.8333 186.833 -29.5 174.667 -29.5 167L-30 141C-30 135 -30.1667 130.333 -30.5 127C-30.5 124.667 -30.6667 121.833 -31 118.5C-31 114.833 -30.8333 110.667 -30.5 106C-30.5 94.6667 -30.3333 85.8333 -30 79.5C-29.3333 72.8333 -27.8333 66.5 -25.5 60.5C-20.1667 46.8333 -13.1667 36.3333 -4.49999 29ZM306.734 29.5C315.734 27.5 324.068 26.5 331.734 26.5C360.734 26.5 382.401 39 396.734 64C411.068 88.6667 418.234 120.833 418.234 160.5C418.234 201.833 410.901 244.5 396.234 288.5C381.901 332.167 362.068 368.5 336.734 397.5C311.734 426.5 283.901 441 253.234 441C238.901 441 224.901 437.667 211.234 431C194.568 422.667 182.068 408.5 173.734 388.5C165.734 368.5 161.734 344.5 161.734 316.5C161.734 278.5 168.401 238.167 181.734 195.5C195.401 152.5 213.401 115.5 235.734 84.5C258.068 53.5 281.734 35.1667 306.734 29.5ZM297.734 110.5C280.401 110.833 264.568 119.833 250.234 137.5C236.234 154.833 225.068 176.667 216.734 203C208.734 229 204.734 254.5 204.734 279.5C204.734 304.833 209.234 325.5 218.234 341.5C227.234 357.167 240.734 365 258.734 365C266.068 365 273.401 363.833 280.734 361.5C296.068 356.5 310.234 345.167 323.234 327.5C336.568 309.833 347.068 289.167 354.734 265.5C362.401 241.5 366.234 218.333 366.234 196C366.234 170 360.568 149.167 349.234 133.5C338.234 117.5 321.068 109.833 297.734 110.5ZM483.184 373.5L481.684 377L483.184 373.5ZM652.184 113.5C652.85 119.167 654.184 128 656.184 140C659.85 165.333 662.517 185.667 664.184 201C665.85 216 666.684 231.333 666.684 247C666.684 267.333 664.684 287.5 660.684 307.5C653.35 338.833 640.184 362.333 621.184 378C613.517 384.333 605.017 389.167 595.684 392.5C586.35 395.833 574.35 399.167 559.684 402.5C553.35 403.833 548.184 405 544.184 406C539.85 407 536.017 408.167 532.684 409.5C529.35 410.5 526.35 411.333 523.684 412C506.684 416.667 493.517 420 484.184 422C475.184 424 466.184 425 457.184 425C447.184 425 440.017 423.167 435.684 419.5C431.684 415.833 429.684 410.667 429.684 404C429.684 397.667 431.35 389.5 434.684 379.5C436.35 374.167 440.184 362.333 446.184 344C456.85 311.667 465.184 284 471.184 261C477.517 237.667 481.85 214.167 484.184 190.5C477.184 197.167 470.85 200.5 465.184 200.5C460.517 200.5 456.517 198.333 453.184 194C449.85 189.333 447.35 183.333 445.684 176C444.684 171 444.184 166 444.184 161C444.184 147.333 447.85 131 455.184 112C460.184 99 468.017 85.1667 478.684 70.5C489.684 55.5 500.184 48 510.184 48C517.85 48 524.517 52.8333 530.184 62.5C537.85 75.5 541.684 93.8333 541.684 117.5C541.684 131.167 540.684 144.5 538.684 157.5C537.017 170.5 534.184 187.833 530.184 209.5C522.184 252.167 508.35 301.833 488.684 358.5C497.35 358.167 506.017 357.167 514.684 355.5C523.684 353.5 535.017 350.5 548.684 346.5L561.184 343C563.517 342.333 568.017 341.333 574.684 340C584.017 338.333 591.85 336.5 598.184 334.5C604.517 332.5 608.85 330 611.184 327C613.85 323.333 615.184 316.5 615.184 306.5C615.184 301.167 614.35 291 612.684 276C611.684 271 611.184 266.833 611.184 263.5C610.184 247.5 607.35 224.667 602.684 195C602.35 192 601.017 185.333 598.684 175C594.017 153.667 591.684 137.167 591.684 125.5C591.684 107.5 596.184 93.1667 605.184 82.5C613.85 71.8333 621.684 66.5 628.684 66.5C640.35 66.5 648.184 82.1666 652.184 113.5ZM768.625 184C768.292 186.333 768.125 189.667 768.125 194C768.125 199 768.458 205.833 769.125 214.5C769.792 223.833 770.125 230.833 770.125 235.5C772.458 233.833 776.958 231.333 783.625 228C797.625 220.667 808.625 213.667 816.625 207C824.625 200.333 828.625 192.833 828.625 184.5C828.625 182.833 828.458 181.5 828.125 180.5C826.792 173.167 823.292 166.667 817.625 161C811.958 155.333 806.458 151.167 801.125 148.5C795.792 145.5 786.958 140.833 774.625 134.5C772.292 150.833 770.292 167.333 768.625 184ZM829.125 193L830.625 190.5L829.125 193ZM831.125 184L831.625 187L831.125 184ZM904.125 251C906.792 250.333 908.625 250 909.625 250C918.625 250 923.125 259.833 923.125 279.5C923.125 289.833 922.292 299.667 920.625 309C919.292 318.333 918.625 323.5 918.625 324.5C916.292 341.5 913.125 356.5 909.125 369.5C905.125 382.5 899.125 394.5 891.125 405.5C880.458 419.833 869.958 427 859.625 427C850.958 427 840.792 422.167 829.125 412.5L780.125 372L757.625 353C755.958 360.333 752.292 370.167 746.625 382.5C741.292 394.5 734.792 405.333 727.125 415C719.458 424.333 711.458 429 703.125 429C701.125 429 698.792 428.5 696.125 427.5C689.458 424.833 686.125 415.667 686.125 400C686.125 385.333 688.625 367 693.625 345L696.125 329.5C696.458 326.167 697.625 317.833 699.625 304.5C701.625 291.167 703.125 278.833 704.125 267.5C705.125 256.167 705.625 245.667 705.625 236C705.625 225.333 705.292 217.333 704.625 212C703.292 201 702.125 193.167 701.125 188.5C697.792 167.167 696.125 150.667 696.125 139C696.125 125.333 698.125 113.333 702.125 103C708.792 85.3333 718.458 72.5 731.125 64.5C744.125 56.1667 758.625 52 774.625 52C793.625 52 812.792 57 832.125 67C851.458 76.6666 866.458 88.5 877.125 102.5C886.458 114.5 891.125 128.333 891.125 144C891.125 160.333 886.125 177 876.125 194C866.458 211 854.125 226.833 839.125 241.5C824.458 256.167 809.292 268.167 793.625 277.5C806.625 287.167 819.125 297.167 831.125 307.5C845.125 318.833 855.625 327.167 862.625 332.5C862.625 287.5 876.458 260.333 904.125 251ZM962.496 83C956.829 79 953.996 72.6666 953.996 64C953.996 62.3333 954.329 59.5 954.996 55.5C957.329 45.5 961.829 36.1667 968.496 27.5C975.496 18.5 983.496 11.3333 992.496 5.99999C999.496 1.99998 1006.5 -2.26498e-05 1013.5 -2.26498e-05C1020.83 -2.26498e-05 1026.5 2.49997 1030.5 7.49997C1033.5 11.5 1035 16.3333 1035 22C1035 27 1033.5 33.3333 1030.5 41C1027.16 50.3333 1022 58.8333 1015 66.5C1008.33 74.1667 1000.66 80 991.996 84C984.996 87.3333 978.829 88.5 973.496 87.5C968.496 86.8333 964.829 85.3333 962.496 83ZM1005 371.5C1005 373.833 1004.5 376.5 1003.5 379.5C1002.83 382.5 1002.33 384.667 1002 386L1001 389C997.663 401.333 991.663 413 982.996 424C974.329 435 963.496 440.5 950.496 440.5C949.163 440.5 948.163 440.333 947.496 440C942.163 439.333 937.829 437.333 934.496 434C929.496 428 926.996 418.667 926.996 406C926.996 401.333 927.329 396 927.996 390C927.663 389 927.663 388 927.996 387C927.996 385.667 927.996 384.833 927.996 384.5C928.996 360.833 932.496 328.667 938.496 288L940.496 272.5C943.829 249.833 945.996 232.833 946.996 221.5L948.996 199C948.996 196.667 949.163 194.833 949.496 193.5C950.163 188.833 950.329 185.833 949.996 184.5C949.663 184.167 949.496 183.833 949.496 183.5C949.496 182.833 949.329 182.333 948.996 182C946.996 179.333 945.996 175.833 945.996 171.5C945.996 166.167 946.496 160.833 947.496 155.5C947.829 154.5 947.996 152.833 947.996 150.5C950.329 135.167 956.829 122 967.496 111C978.496 100 988.829 94.5 998.496 94.5C1002.16 94.5 1005.66 95.3333 1009 97C1017.33 101.333 1021.5 110.5 1021.5 124.5C1020.83 133.833 1020.5 140.833 1020.5 145.5L1020 158.5L1018.5 186C1018.16 203.333 1017.16 221 1015.5 239C1015.16 245.667 1013.16 267.667 1009.5 305L1008 320.5L1007 330.5L1004 358C1003.66 359.333 1003.5 360.5 1003.5 361.5C1003.83 362.167 1004 363 1004 364C1004.66 365.667 1004.83 367 1004.5 368L1005 371.5ZM1279.33 2.99997C1292.99 1.99998 1299.83 6.99999 1299.83 18C1299.83 23.6667 1297.99 30.1667 1294.33 37.5C1290.99 44.5 1287.16 50.6666 1282.83 56C1278.49 61.3333 1274.33 65 1270.33 67C1266.66 68.6666 1262.49 69.5 1257.83 69.5L1243.83 69C1239.16 69 1235.49 69.3333 1232.83 70C1216.49 73.3333 1199.16 77.6667 1180.83 83C1180.49 83 1176.83 83.8333 1169.83 85.5C1168.49 85.8333 1165.16 86.6666 1159.83 88C1154.83 89 1150.33 90.1667 1146.33 91.5C1142.66 92.8333 1139.99 94.5 1138.33 96.5C1134.99 99.8333 1133.33 105 1133.33 112C1133.33 118.667 1134.66 126.667 1137.33 136C1140.33 145 1141.99 150.333 1142.33 152C1145.99 162.333 1147.99 169.667 1148.33 174C1161.66 169.333 1177.49 164.667 1195.83 160C1214.16 155 1230.33 152.5 1244.33 152.5C1263.99 152.5 1273.83 158.333 1273.83 170C1273.83 175.333 1271.66 182.167 1267.33 190.5C1262.66 198.5 1257.16 204.5 1250.83 208.5C1244.49 212.5 1237.99 215.167 1231.33 216.5C1224.66 217.5 1215.66 218.5 1204.33 219.5C1202.33 219.5 1199.33 219.667 1195.33 220C1191.66 220.333 1188.49 220.667 1185.83 221C1184.16 221.333 1180.49 221.833 1174.83 222.5C1169.16 222.833 1164.33 223.833 1160.33 225.5C1155.33 227.5 1152.16 229 1150.83 230C1149.83 230.667 1149.33 232.167 1149.33 234.5C1149.33 236.5 1149.16 239.5 1148.83 243.5C1148.16 252.833 1146.49 266.833 1143.83 285.5L1142.33 296C1138.99 318.667 1135.49 338.333 1131.83 355C1128.16 371.667 1122.99 387.667 1116.33 403C1111.66 413 1104.99 423.5 1096.33 434.5C1087.99 445.5 1079.66 451 1071.33 451C1068.99 451 1066.83 450.5 1064.83 449.5C1058.83 446.5 1055.83 437.333 1055.83 422C1055.83 412 1057.49 396.667 1060.83 376L1062.33 364.5L1070.33 290C1072.33 275.333 1073.66 264.333 1074.33 257L1065.83 262C1050.49 272 1039.49 277 1032.83 277C1030.16 277 1027.99 276.333 1026.33 275C1022.99 272 1021.33 268.5 1021.33 264.5C1021.33 257.5 1024.99 249.833 1032.33 241.5C1039.66 233.167 1046.83 226.5 1053.83 221.5C1056.83 219.167 1060.16 217.167 1063.83 215.5C1070.16 211.5 1074.66 207.833 1077.33 204.5C1080.33 200.833 1081.83 195.167 1081.83 187.5C1081.83 181.833 1080.66 175.5 1078.33 168.5C1076.66 163.833 1074.16 159.333 1070.83 155C1067.49 150.333 1065.49 147.5 1064.83 146.5C1060.16 139.833 1056.66 134.5 1054.33 130.5C1051.99 126.167 1050.83 121.5 1050.83 116.5C1050.83 112.5 1051.83 108 1053.83 103C1058.49 92.3333 1066.33 83.3333 1077.33 76C1088.66 68.6666 1103.16 61.1666 1120.83 53.5L1134.33 47.5C1161.33 34.8333 1186.49 24.6666 1209.83 17C1233.49 8.99997 1256.66 4.3333 1279.33 2.99997ZM1502.32 236.5C1511.66 262.167 1516.32 283.667 1516.32 301C1516.32 320.333 1511.16 338.5 1500.82 355.5C1490.82 371.833 1477.32 385.833 1460.32 397.5C1443.66 409.167 1425.16 418 1404.82 424C1389.16 428.667 1372.32 431 1354.32 431C1334.99 431 1316.49 428.333 1298.82 423C1281.49 417.667 1267.32 409.5 1256.32 398.5C1245.32 387.167 1239.82 373.333 1239.82 357C1239.82 347.667 1241.82 337.333 1245.82 326C1248.82 316.667 1253.32 307.5 1259.32 298.5C1265.32 289.167 1271.99 284.5 1279.32 284.5C1286.32 284.5 1289.82 287.333 1289.82 293C1289.82 295.333 1289.16 298.333 1287.82 302C1286.49 305.333 1285.66 307.5 1285.32 308.5C1284.99 309.5 1284.32 311.167 1283.32 313.5C1282.32 315.833 1281.82 317.833 1281.82 319.5C1281.16 329.5 1284.82 338.5 1292.82 346.5C1300.82 354.167 1310.66 360.5 1322.32 365.5C1333.99 370.167 1344.66 373.333 1354.32 375C1364.32 377 1374.99 378 1386.32 378C1400.66 378 1414.32 376.167 1427.32 372.5C1440.32 368.833 1451.49 363.167 1460.82 355.5C1469.49 348.167 1473.82 338.667 1473.82 327C1473.82 320.333 1472.66 313.5 1470.32 306.5C1468.32 299.5 1465.32 290.667 1461.32 280C1457.32 271.333 1454.32 263 1452.32 255C1441.66 270.667 1430.66 283.667 1419.32 294C1407.99 304.333 1395.66 309.5 1382.32 309.5C1371.32 309.5 1361.49 305.333 1352.82 297C1344.49 288.667 1337.66 278.667 1332.32 267C1324.32 248.667 1320.32 227.667 1320.32 204C1320.32 177.667 1324.99 148.5 1334.32 116.5C1325.99 116.5 1319.66 114.667 1315.32 111C1311.32 107 1309.32 101.667 1309.32 95C1309.32 88.6666 1310.99 82 1314.32 75C1318.32 66 1325.49 58.3333 1335.82 52C1346.49 45.3333 1356.99 42 1367.32 42C1378.66 42 1387.32 46 1393.32 54C1396.32 58 1397.82 63.3333 1397.82 70C1397.82 75.6666 1396.99 81.5 1395.32 87.5C1393.66 93.5 1391.16 101.667 1387.82 112C1384.49 121.333 1382.32 128.333 1381.32 133C1378.99 147 1377.82 159.667 1377.82 171C1377.82 192.667 1381.99 209.833 1390.32 222.5C1394.99 229.5 1399.82 233 1404.82 233C1410.82 233 1416.66 229 1422.32 221C1428.32 212.667 1432.99 203.5 1436.32 193.5C1437.99 188.5 1438.82 182.5 1438.82 175.5C1438.82 171.833 1438.49 166 1437.82 158C1437.16 150.667 1436.82 145 1436.82 141C1436.82 127.333 1440.49 116 1447.82 107C1455.49 98 1462.16 93.5 1467.82 93.5C1474.49 93.5 1479.49 98 1482.82 107C1486.16 115.667 1488.99 126.667 1491.32 140C1492.32 145.333 1492.82 150.5 1492.82 155.5C1492.82 159.833 1492.49 166 1491.82 174C1490.82 180.333 1490.32 187 1490.32 194C1490.32 202.667 1493.16 213.667 1498.82 227L1502.32 236.5Z" fill="white" fill-opacity="0.05"/>
</svg>
