<svg width="116" height="34" viewBox="0 0 116 34" fill="none" xmlns="http://www.w3.org/2000/svg">
<path d="M6.084 3.048C6.444 2.76 6.84 2.58 7.272 2.508H7.38C7.764 2.508 8.016 2.676 8.136 3.012C8.28 3.276 8.376 3.636 8.424 4.092C8.472 4.332 8.496 4.5 8.496 4.596C8.832 5.772 9.132 6.804 9.396 7.692C9.684 8.556 9.924 9.288 10.116 9.888C10.308 10.536 10.608 11.52 11.016 12.84C11.424 14.136 11.772 15.288 12.06 16.296C12.156 16.608 12.216 16.812 12.24 16.908C12.24 16.236 12.216 15.228 12.168 13.884L12.132 12.372L12.096 11.436C12.072 10.452 12.024 9.636 11.952 8.988C11.904 8.34 11.796 7.704 11.628 7.08C11.628 6.456 11.724 5.904 11.916 5.424L12.348 4.488C12.612 3.984 13.008 3.48 13.536 2.976C13.92 2.64 14.34 2.436 14.796 2.364C15.204 2.364 15.516 2.544 15.732 2.904C16.092 3.84 16.296 4.86 16.344 5.964C16.344 6.636 16.356 7.128 16.38 7.44C16.38 8.688 16.392 9.612 16.416 10.212C16.416 11.532 16.392 13.488 16.344 16.08C16.344 17.4 16.272 19.356 16.128 21.948L16.092 22.704C16.068 22.968 16.032 23.424 15.984 24.072C15.96 24.72 15.912 25.296 15.84 25.8C15.624 27.408 15.36 28.68 15.048 29.616C14.784 30.312 14.544 30.852 14.328 31.236C14.088 31.692 13.68 32.184 13.104 32.712C12.696 33.072 12.3 33.252 11.916 33.252C11.772 33.252 11.628 33.216 11.484 33.144C11.1 32.952 10.776 32.448 10.512 31.632C10.296 30.96 10.08 30.168 9.864 29.256C9.72 28.584 9.624 28.08 9.576 27.744C9.312 26.4 9.12 25.488 9 25.008C8.736 23.664 8.292 21.672 7.668 19.032C6.876 23.928 5.652 27.984 3.996 31.2C3.828 31.56 3.588 31.896 3.276 32.208C2.988 32.52 2.688 32.748 2.376 32.892C2.208 32.988 2.016 33.036 1.8 33.036C1.608 33.036 1.464 33.012 1.368 32.964C1.056 32.748 0.9 32.376 0.9 31.848C0.9 31.632 0.912 31.476 0.936 31.38C1.056 30.78 1.248 30.252 1.512 29.796L1.584 29.652C2.016 28.668 2.4 27.588 2.736 26.412C3.12 24.804 3.42 23.148 3.636 21.444C3.852 19.74 4.044 17.796 4.212 15.612C4.26 14.412 4.284 13.536 4.284 12.984L4.248 11.112C4.248 10.68 4.236 10.344 4.212 10.104C4.212 9.936 4.2 9.732 4.176 9.492C4.176 9.228 4.188 8.928 4.212 8.592C4.212 7.776 4.224 7.14 4.248 6.684C4.296 6.204 4.404 5.748 4.572 5.316C4.956 4.332 5.46 3.576 6.084 3.048ZM28.4929 3.084C29.1409 2.94 29.7409 2.868 30.2929 2.868C32.3809 2.868 33.9409 3.768 34.9729 5.568C36.0049 7.344 36.5209 9.66 36.5209 12.516C36.5209 15.492 35.9929 18.564 34.9369 21.732C33.9049 24.876 32.4769 27.492 30.6529 29.58C28.8529 31.668 26.8489 32.712 24.6409 32.712C23.6089 32.712 22.6009 32.472 21.6169 31.992C20.4169 31.392 19.5169 30.372 18.9169 28.932C18.3409 27.492 18.0529 25.764 18.0529 23.748C18.0529 21.012 18.5329 18.108 19.4929 15.036C20.4769 11.94 21.7729 9.276 23.3809 7.044C24.9889 4.812 26.6929 3.492 28.4929 3.084ZM27.8449 8.916C26.5969 8.94 25.4569 9.588 24.4249 10.86C23.4169 12.108 22.6129 13.68 22.0129 15.576C21.4369 17.448 21.1489 19.284 21.1489 21.084C21.1489 22.908 21.4729 24.396 22.1209 25.548C22.7689 26.676 23.7409 27.24 25.0369 27.24C25.5649 27.24 26.0929 27.156 26.6209 26.988C27.7249 26.628 28.7449 25.812 29.6809 24.54C30.6409 23.268 31.3969 21.78 31.9489 20.076C32.5009 18.348 32.7769 16.68 32.7769 15.072C32.7769 13.2 32.3689 11.7 31.5529 10.572C30.7609 9.42 29.5249 8.868 27.8449 8.916ZM41.1972 27.852L41.0892 28.104L41.1972 27.852ZM53.3652 9.132C53.4132 9.54 53.5092 10.176 53.6532 11.04C53.9172 12.864 54.1092 14.328 54.2292 15.432C54.3492 16.512 54.4092 17.616 54.4092 18.744C54.4092 20.208 54.2652 21.66 53.9772 23.1C53.4492 25.356 52.5012 27.048 51.1332 28.176C50.5812 28.632 49.9692 28.98 49.2972 29.22C48.6252 29.46 47.7612 29.7 46.7052 29.94C46.2492 30.036 45.8772 30.12 45.5892 30.192C45.2772 30.264 45.0012 30.348 44.7612 30.444C44.5212 30.516 44.3052 30.576 44.1132 30.624C42.8892 30.96 41.9412 31.2 41.2692 31.344C40.6212 31.488 39.9732 31.56 39.3252 31.56C38.6052 31.56 38.0892 31.428 37.7772 31.164C37.4892 30.9 37.3452 30.528 37.3452 30.048C37.3452 29.592 37.4652 29.004 37.7052 28.284C37.8252 27.9 38.1012 27.048 38.5332 25.728C39.3012 23.4 39.9012 21.408 40.3332 19.752C40.7892 18.072 41.1012 16.38 41.2692 14.676C40.7652 15.156 40.3092 15.396 39.9012 15.396C39.5652 15.396 39.2772 15.24 39.0372 14.928C38.7972 14.592 38.6172 14.16 38.4972 13.632C38.4252 13.272 38.3892 12.912 38.3892 12.552C38.3892 11.568 38.6532 10.392 39.1812 9.024C39.5412 8.088 40.1052 7.092 40.8732 6.036C41.6652 4.956 42.4212 4.416 43.1412 4.416C43.6932 4.416 44.1732 4.764 44.5812 5.46C45.1332 6.396 45.4092 7.716 45.4092 9.42C45.4092 10.404 45.3372 11.364 45.1932 12.3C45.0732 13.236 44.8692 14.484 44.5812 16.044C44.0052 19.116 43.0092 22.692 41.5932 26.772C42.2172 26.748 42.8412 26.676 43.4652 26.556C44.1132 26.412 44.9292 26.196 45.9132 25.908L46.8132 25.656C46.9812 25.608 47.3052 25.536 47.7852 25.44C48.4572 25.32 49.0212 25.188 49.4772 25.044C49.9332 24.9 50.2452 24.72 50.4132 24.504C50.6052 24.24 50.7012 23.748 50.7012 23.028C50.7012 22.644 50.6412 21.912 50.5212 20.832C50.4492 20.472 50.4132 20.172 50.4132 19.932C50.3412 18.78 50.1372 17.136 49.8012 15C49.7772 14.784 49.6812 14.304 49.5132 13.56C49.1772 12.024 49.0092 10.836 49.0092 9.996C49.0092 8.7 49.3332 7.668 49.9812 6.9C50.6052 6.132 51.1692 5.748 51.6732 5.748C52.5132 5.748 53.0772 6.876 53.3652 9.132ZM61.749 14.208C61.725 14.376 61.713 14.616 61.713 14.928C61.713 15.288 61.737 15.78 61.785 16.404C61.833 17.076 61.857 17.58 61.857 17.916C62.025 17.796 62.349 17.616 62.829 17.376C63.837 16.848 64.629 16.344 65.205 15.864C65.781 15.384 66.069 14.844 66.069 14.244C66.069 14.124 66.057 14.028 66.033 13.956C65.937 13.428 65.685 12.96 65.277 12.552C64.869 12.144 64.473 11.844 64.089 11.652C63.705 11.436 63.069 11.1 62.181 10.644C62.013 11.82 61.869 13.008 61.749 14.208ZM66.105 14.856L66.213 14.676L66.105 14.856ZM66.249 14.208L66.285 14.424L66.249 14.208ZM71.505 19.032C71.697 18.984 71.829 18.96 71.901 18.96C72.549 18.96 72.873 19.668 72.873 21.084C72.873 21.828 72.813 22.536 72.693 23.208C72.597 23.88 72.549 24.252 72.549 24.324C72.381 25.548 72.153 26.628 71.865 27.564C71.577 28.5 71.145 29.364 70.569 30.156C69.801 31.188 69.045 31.704 68.301 31.704C67.677 31.704 66.945 31.356 66.105 30.66L62.577 27.744L60.957 26.376C60.837 26.904 60.573 27.612 60.165 28.5C59.781 29.364 59.313 30.144 58.761 30.84C58.209 31.512 57.633 31.848 57.033 31.848C56.889 31.848 56.721 31.812 56.529 31.74C56.049 31.548 55.809 30.888 55.809 29.76C55.809 28.704 55.989 27.384 56.349 25.8L56.529 24.684C56.553 24.444 56.637 23.844 56.781 22.884C56.925 21.924 57.033 21.036 57.105 20.22C57.177 19.404 57.213 18.648 57.213 17.952C57.213 17.184 57.189 16.608 57.141 16.224C57.045 15.432 56.961 14.868 56.889 14.532C56.649 12.996 56.529 11.808 56.529 10.968C56.529 9.984 56.673 9.12 56.961 8.376C57.441 7.104 58.137 6.18 59.049 5.604C59.985 5.004 61.029 4.704 62.181 4.704C63.549 4.704 64.929 5.064 66.321 5.784C67.713 6.48 68.793 7.332 69.561 8.34C70.233 9.204 70.569 10.2 70.569 11.328C70.569 12.504 70.209 13.704 69.489 14.928C68.793 16.152 67.905 17.292 66.825 18.348C65.769 19.404 64.677 20.268 63.549 20.94C64.485 21.636 65.385 22.356 66.249 23.1C67.257 23.916 68.013 24.516 68.517 24.9C68.517 21.66 69.513 19.704 71.505 19.032ZM75.7077 6.936C75.2997 6.648 75.0957 6.192 75.0957 5.568C75.0957 5.448 75.1197 5.244 75.1677 4.956C75.3357 4.236 75.6597 3.564 76.1397 2.94C76.6437 2.292 77.2197 1.776 77.8677 1.392C78.3717 1.104 78.8757 0.959998 79.3797 0.959998C79.9077 0.959998 80.3157 1.14 80.6037 1.5C80.8197 1.788 80.9277 2.136 80.9277 2.544C80.9277 2.904 80.8197 3.36 80.6037 3.912C80.3637 4.584 79.9917 5.196 79.4877 5.748C79.0077 6.3 78.4557 6.72 77.8317 7.008C77.3277 7.248 76.8837 7.332 76.4997 7.26C76.1397 7.212 75.8757 7.104 75.7077 6.936ZM78.7677 27.708C78.7677 27.876 78.7317 28.068 78.6597 28.284C78.6117 28.5 78.5757 28.656 78.5517 28.752L78.4797 28.968C78.2397 29.856 77.8077 30.696 77.1837 31.488C76.5597 32.28 75.7797 32.676 74.8437 32.676C74.7477 32.676 74.6757 32.664 74.6277 32.64C74.2437 32.592 73.9317 32.448 73.6917 32.208C73.3317 31.776 73.1517 31.104 73.1517 30.192C73.1517 29.856 73.1757 29.472 73.2237 29.04C73.1997 28.968 73.1997 28.896 73.2237 28.824C73.2237 28.728 73.2237 28.668 73.2237 28.644C73.2957 26.94 73.5477 24.624 73.9797 21.696L74.1237 20.58C74.3637 18.948 74.5197 17.724 74.5917 16.908L74.7357 15.288C74.7357 15.12 74.7477 14.988 74.7717 14.892C74.8197 14.556 74.8317 14.34 74.8077 14.244C74.7837 14.22 74.7717 14.196 74.7717 14.172C74.7717 14.124 74.7597 14.088 74.7357 14.064C74.5917 13.872 74.5197 13.62 74.5197 13.308C74.5197 12.924 74.5557 12.54 74.6277 12.156C74.6517 12.084 74.6637 11.964 74.6637 11.796C74.8317 10.692 75.2997 9.744 76.0677 8.952C76.8597 8.16 77.6037 7.764 78.2997 7.764C78.5637 7.764 78.8157 7.824 79.0557 7.944C79.6557 8.256 79.9557 8.916 79.9557 9.924C79.9077 10.596 79.8837 11.1 79.8837 11.436L79.8477 12.372L79.7397 14.352C79.7157 15.6 79.6437 16.872 79.5237 18.168C79.4997 18.648 79.3557 20.232 79.0917 22.92L78.9837 24.036L78.9117 24.756L78.6957 26.736C78.6717 26.832 78.6597 26.916 78.6597 26.988C78.6837 27.036 78.6957 27.096 78.6957 27.168C78.7437 27.288 78.7557 27.384 78.7317 27.456L78.7677 27.708ZM98.5196 1.176C99.5036 1.104 99.9956 1.464 99.9956 2.256C99.9956 2.664 99.8636 3.132 99.5996 3.66C99.3596 4.164 99.0836 4.608 98.7716 4.992C98.4596 5.376 98.1596 5.64 97.8716 5.784C97.6076 5.904 97.3076 5.964 96.9716 5.964L95.9636 5.928C95.6276 5.928 95.3636 5.952 95.1716 6C93.9956 6.24 92.7476 6.552 91.4276 6.936C91.4036 6.936 91.1396 6.996 90.6356 7.116C90.5396 7.14 90.2996 7.2 89.9156 7.296C89.5556 7.368 89.2316 7.452 88.9436 7.548C88.6796 7.644 88.4876 7.764 88.3676 7.908C88.1276 8.148 88.0076 8.52 88.0076 9.024C88.0076 9.504 88.1036 10.08 88.2956 10.752C88.5116 11.4 88.6316 11.784 88.6556 11.904C88.9196 12.648 89.0636 13.176 89.0876 13.488C90.0476 13.152 91.1876 12.816 92.5076 12.48C93.8276 12.12 94.9916 11.94 95.9996 11.94C97.4156 11.94 98.1236 12.36 98.1236 13.2C98.1236 13.584 97.9676 14.076 97.6556 14.676C97.3196 15.252 96.9236 15.684 96.4676 15.972C96.0116 16.26 95.5436 16.452 95.0636 16.548C94.5836 16.62 93.9356 16.692 93.1196 16.764C92.9756 16.764 92.7596 16.776 92.4716 16.8C92.2076 16.824 91.9796 16.848 91.7876 16.872C91.6676 16.896 91.4036 16.932 90.9956 16.98C90.5876 17.004 90.2396 17.076 89.9516 17.196C89.5916 17.34 89.3636 17.448 89.2676 17.52C89.1956 17.568 89.1596 17.676 89.1596 17.844C89.1596 17.988 89.1476 18.204 89.1236 18.492C89.0756 19.164 88.9556 20.172 88.7636 21.516L88.6556 22.272C88.4156 23.904 88.1636 25.32 87.8996 26.52C87.6356 27.72 87.2636 28.872 86.7836 29.976C86.4476 30.696 85.9676 31.452 85.3436 32.244C84.7436 33.036 84.1436 33.432 83.5436 33.432C83.3756 33.432 83.2196 33.396 83.0756 33.324C82.6436 33.108 82.4276 32.448 82.4276 31.344C82.4276 30.624 82.5476 29.52 82.7876 28.032L82.8956 27.204L83.4716 21.84C83.6156 20.784 83.7116 19.992 83.7596 19.464L83.1476 19.824C82.0436 20.544 81.2516 20.904 80.7716 20.904C80.5796 20.904 80.4236 20.856 80.3036 20.76C80.0636 20.544 79.9436 20.292 79.9436 20.004C79.9436 19.5 80.2076 18.948 80.7356 18.348C81.2636 17.748 81.7796 17.268 82.2836 16.908C82.4996 16.74 82.7396 16.596 83.0036 16.476C83.4596 16.188 83.7836 15.924 83.9756 15.684C84.1916 15.42 84.2996 15.012 84.2996 14.46C84.2996 14.052 84.2156 13.596 84.0476 13.092C83.9276 12.756 83.7476 12.432 83.5076 12.12C83.2676 11.784 83.1236 11.58 83.0756 11.508C82.7396 11.028 82.4876 10.644 82.3196 10.356C82.1516 10.044 82.0676 9.708 82.0676 9.348C82.0676 9.06 82.1396 8.736 82.2836 8.376C82.6196 7.608 83.1836 6.96 83.9756 6.432C84.7916 5.904 85.8356 5.364 87.1076 4.812L88.0796 4.38C90.0236 3.468 91.8356 2.736 93.5156 2.184C95.2196 1.608 96.8876 1.272 98.5196 1.176ZM114.575 17.988C115.247 19.836 115.583 21.384 115.583 22.632C115.583 24.024 115.211 25.332 114.467 26.556C113.747 27.732 112.775 28.74 111.551 29.58C110.351 30.42 109.019 31.056 107.555 31.488C106.427 31.824 105.215 31.992 103.919 31.992C102.527 31.992 101.195 31.8 99.9233 31.416C98.6753 31.032 97.6553 30.444 96.8633 29.652C96.0713 28.836 95.6753 27.84 95.6753 26.664C95.6753 25.992 95.8193 25.248 96.1073 24.432C96.3233 23.76 96.6473 23.1 97.0793 22.452C97.5113 21.78 97.9913 21.444 98.5193 21.444C99.0233 21.444 99.2753 21.648 99.2753 22.056C99.2753 22.224 99.2273 22.44 99.1313 22.704C99.0353 22.944 98.9753 23.1 98.9513 23.172C98.9273 23.244 98.8793 23.364 98.8073 23.532C98.7353 23.7 98.6993 23.844 98.6993 23.964C98.6513 24.684 98.9153 25.332 99.4913 25.908C100.067 26.46 100.775 26.916 101.615 27.276C102.455 27.612 103.223 27.84 103.919 27.96C104.639 28.104 105.407 28.176 106.223 28.176C107.255 28.176 108.239 28.044 109.175 27.78C110.111 27.516 110.915 27.108 111.587 26.556C112.211 26.028 112.523 25.344 112.523 24.504C112.523 24.024 112.439 23.532 112.271 23.028C112.127 22.524 111.911 21.888 111.623 21.12C111.335 20.496 111.119 19.896 110.975 19.32C110.207 20.448 109.415 21.384 108.599 22.128C107.783 22.872 106.895 23.244 105.935 23.244C105.143 23.244 104.435 22.944 103.811 22.344C103.211 21.744 102.719 21.024 102.335 20.184C101.759 18.864 101.471 17.352 101.471 15.648C101.471 13.752 101.807 11.652 102.479 9.348C101.879 9.348 101.423 9.216 101.111 8.952C100.823 8.664 100.679 8.28 100.679 7.8C100.679 7.344 100.799 6.864 101.039 6.36C101.327 5.712 101.843 5.16 102.587 4.704C103.355 4.224 104.111 3.984 104.855 3.984C105.671 3.984 106.295 4.272 106.727 4.848C106.943 5.136 107.051 5.52 107.051 6C107.051 6.408 106.991 6.828 106.871 7.26C106.751 7.692 106.571 8.28 106.331 9.024C106.091 9.696 105.935 10.2 105.863 10.536C105.695 11.544 105.611 12.456 105.611 13.272C105.611 14.832 105.911 16.068 106.511 16.98C106.847 17.484 107.195 17.736 107.555 17.736C107.987 17.736 108.407 17.448 108.815 16.872C109.247 16.272 109.583 15.612 109.823 14.892C109.943 14.532 110.003 14.1 110.003 13.596C110.003 13.332 109.979 12.912 109.931 12.336C109.883 11.808 109.859 11.4 109.859 11.112C109.859 10.128 110.123 9.312 110.651 8.664C111.203 8.016 111.683 7.692 112.091 7.692C112.571 7.692 112.931 8.016 113.171 8.664C113.411 9.288 113.615 10.08 113.783 11.04C113.855 11.424 113.891 11.796 113.891 12.156C113.891 12.468 113.867 12.912 113.819 13.488C113.747 13.944 113.711 14.424 113.711 14.928C113.711 15.552 113.915 16.344 114.323 17.304L114.575 17.988Z" fill="white"/>
</svg>
