<svg width="44" height="44" viewBox="0 0 44 44" fill="none" xmlns="http://www.w3.org/2000/svg">
<rect width="44" height="44" rx="22" fill="#002BFF" fill-opacity="0.1"/>
<path d="M13.0616 25.1933L13.4269 23.1219C13.8586 20.6736 14.0744 19.4495 14.9291 18.7248C15.7839 18 17.0117 18 19.4673 18H24.5327C26.9883 18 28.2161 18 29.0709 18.7248C29.9256 19.4495 30.1414 20.6736 30.5731 23.1219L30.9384 25.1933C31.5357 28.5811 31.8344 30.275 30.9147 31.3875C29.995 32.5 28.2959 32.5 24.8979 32.5H19.1021C15.7041 32.5 14.005 32.5 13.0853 31.3875C12.1656 30.275 12.4643 28.5811 13.0616 25.1933Z" fill="#002BFF" stroke="#002BFF" stroke-width="2"/>
<path d="M17.5 18L17.6678 15.9862C17.8556 13.7331 19.7391 12 22 12C24.2609 12 26.1444 13.7331 26.3322 15.9862L26.5 18" stroke="#002BFF" stroke-width="2"/>
<path d="M25 21C24.87 22.4131 23.5657 23.5 22 23.5C20.4343 23.5 19.13 22.4131 19 21" stroke="white" stroke-width="1.5" stroke-linecap="round"/>
</svg>
