<svg width="20" height="20" viewBox="0 0 20 20" fill="none" xmlns="http://www.w3.org/2000/svg">
<path d="M10.8333 3.33325H2.5" stroke="#079C4E" stroke-width="1.5" stroke-linecap="round" stroke-linejoin="round"/>
<path d="M9.16667 15.8333H2.5" stroke="#079C4E" stroke-width="1.5" stroke-linecap="round" stroke-linejoin="round"/>
<path d="M17.5013 15.8333H14.168" stroke="#079C4E" stroke-width="1.5" stroke-linecap="round" stroke-linejoin="round"/>
<path d="M17.5013 9.58325H9.16797" stroke="#079C4E" stroke-width="1.5" stroke-linecap="round" stroke-linejoin="round"/>
<path d="M17.4987 3.33325H15.832" stroke="#079C4E" stroke-width="1.5" stroke-linecap="round" stroke-linejoin="round"/>
<path d="M4.16667 9.58325H2.5" stroke="#079C4E" stroke-width="1.5" stroke-linecap="round" stroke-linejoin="round"/>
<path d="M12.082 1.66675C12.4703 1.66675 12.6644 1.66675 12.8176 1.73018C13.0218 1.81476 13.184 1.97699 13.2686 2.18118C13.332 2.33432 13.332 2.52846 13.332 2.91675V3.75008C13.332 4.13836 13.332 4.33251 13.2686 4.48565C13.184 4.68984 13.0218 4.85207 12.8176 4.93665C12.6644 5.00008 12.4703 5.00008 12.082 5.00008C11.6938 5.00008 11.4996 5.00008 11.3464 4.93665C11.1423 4.85207 10.98 4.68984 10.8954 4.48565C10.832 4.33251 10.832 4.13836 10.832 3.75008V2.91675C10.832 2.52846 10.832 2.33432 10.8954 2.18118C10.98 1.97699 11.1423 1.81476 11.3464 1.73018C11.4996 1.66675 11.6938 1.66675 12.082 1.66675Z" stroke="#079C4E" stroke-width="1.5" stroke-linecap="round" stroke-linejoin="round"/>
<path d="M10.418 14.1667C10.8062 14.1667 11.0004 14.1667 11.1536 14.2302C11.3577 14.3147 11.52 14.477 11.6046 14.6812C11.668 14.8343 11.668 15.0285 11.668 15.4167V16.2501C11.668 16.6383 11.668 16.8325 11.6046 16.9857C11.52 17.1898 11.3577 17.3521 11.1536 17.4367C11.0004 17.5001 10.8062 17.5001 10.418 17.5001C10.0297 17.5001 9.83555 17.5001 9.68239 17.4367C9.47822 17.3521 9.31597 17.1898 9.23139 16.9857C9.16797 16.8325 9.16797 16.6383 9.16797 16.2501V15.4167C9.16797 15.0285 9.16797 14.8343 9.23139 14.6812C9.31597 14.477 9.47822 14.3147 9.68239 14.2302C9.83555 14.1667 10.0297 14.1667 10.418 14.1667Z" stroke="#079C4E" stroke-width="1.5" stroke-linecap="round" stroke-linejoin="round"/>
<path d="M7.91797 7.91675C8.30625 7.91675 8.50039 7.91675 8.65355 7.98018C8.85772 8.06476 9.01997 8.22699 9.10455 8.43116C9.16797 8.58433 9.16797 8.7785 9.16797 9.16675V10.0001C9.16797 10.3883 9.16797 10.5825 9.10455 10.7357C9.01997 10.9398 8.85772 11.1021 8.65355 11.1867C8.50039 11.2501 8.30625 11.2501 7.91797 11.2501C7.52969 11.2501 7.33554 11.2501 7.1824 11.1867C6.97821 11.1021 6.81598 10.9398 6.7314 10.7357C6.66797 10.5825 6.66797 10.3883 6.66797 10.0001V9.16675C6.66797 8.7785 6.66797 8.58433 6.7314 8.43116C6.81598 8.22699 6.97821 8.06476 7.1824 7.98018C7.33554 7.91675 7.52969 7.91675 7.91797 7.91675Z" stroke="#079C4E" stroke-width="1.5" stroke-linecap="round" stroke-linejoin="round"/>
</svg>
