<svg width="41" height="39" viewBox="0 0 41 39" fill="none" xmlns="http://www.w3.org/2000/svg">
<path fill-rule="evenodd" clip-rule="evenodd" d="M11.1986 0.500977H36.5712C38.9023 0.500977 40.8002 2.41991 40.8002 4.77653V23.5878C40.8002 25.9445 38.9023 27.8634 36.5712 27.8634H11.1986C8.86793 27.8634 6.9699 25.9445 6.9699 23.5878V4.77653C6.9699 2.41991 8.86793 0.500977 11.1986 0.500977ZM36.5712 3.92135H11.1986C10.7319 3.92135 10.353 4.30429 10.353 4.77645V20.9184L15.0215 16.2C16.1768 15.0304 18.0596 15.0304 19.2164 16.2L21.2631 18.2642L27.5455 10.6406C28.1071 9.95984 28.9291 9.56656 29.8053 9.56159C30.6865 9.58187 31.5069 9.94108 32.0738 10.6131L37.4171 16.9168V4.77653C37.4171 4.30437 37.0383 3.92135 36.5712 3.92135ZM4.78665 26.0658C5.66137 28.6755 8.07003 30.4284 10.7779 30.4284H35.3336L33.8097 35.3277C33.3782 36.9937 31.8389 38.124 30.1543 38.124C29.8256 38.1238 29.4982 38.0813 29.18 37.9975L3.02396 30.9156C1.00612 30.353 -0.196544 28.2412 0.331208 26.2042L4.43476 12.3555V24.0154C4.43476 24.5969 4.52119 25.1781 4.7275 25.8692L4.78665 26.0658ZM18.8125 9.05162C18.8125 10.9379 17.2955 12.472 15.4297 12.472C13.5639 12.472 12.0466 10.9378 12.0466 9.05162C12.0466 7.16539 13.5638 5.63124 15.4297 5.63124C17.2955 5.63124 18.8125 7.16531 18.8125 9.05162Z" fill="#A3A3A3"/>
</svg>
