<svg width="38" height="40" viewBox="0 0 38 40" fill="none" xmlns="http://www.w3.org/2000/svg">
<path d="M31.4998 22.9999H17.1186L21.3205 18.798C22.8396 19.5631 24.5134 19.971 26.2142 19.9905C27.9261 19.995 29.606 19.5266 31.0686 18.6368C35.5161 15.9443 37.8992 9.71178 37.4436 1.96428C37.4221 1.59731 37.2667 1.25099 37.0068 0.991065C36.7469 0.73114 36.4005 0.575707 36.0336 0.554277C28.2861 0.0986519 22.0536 2.48178 19.3592 6.92928C17.6061 9.82615 17.5611 13.3249 19.198 16.6793L16.4998 19.3774L14.2105 17.088C15.3355 14.6037 15.2548 12.0255 13.9498 9.87303C11.9117 6.4999 7.2392 4.70178 1.4492 5.04115C1.08288 5.06298 0.737257 5.21834 0.477763 5.47784C0.21827 5.73733 0.0629075 6.08295 0.0410798 6.44928C-0.30017 12.2374 1.49983 16.9099 4.87483 18.9499C6.00387 19.6395 7.30185 20.003 8.62483 19.9999C9.82503 19.988 11.0089 19.7202 12.0973 19.2143L14.3792 21.4999L12.8792 22.9999H4.49983C4.102 22.9999 3.72047 23.1579 3.43917 23.4392C3.15787 23.7205 2.99983 24.1021 2.99983 24.4999C2.99983 24.8977 3.15787 25.2793 3.43917 25.5606C3.72047 25.8419 4.102 25.9999 4.49983 25.9999H6.29795L8.77483 37.1505C8.91938 37.8187 9.2893 38.4168 9.82256 38.8446C10.3558 39.2724 11.02 39.5037 11.7036 39.4999H24.298C24.9814 39.503 25.6452 39.2714 26.1783 38.8438C26.7114 38.4161 27.0815 37.8184 27.2267 37.1505L29.7036 25.9999H31.4998C31.8977 25.9999 32.2792 25.8419 32.5605 25.5606C32.8418 25.2793 32.9998 24.8977 32.9998 24.4999C32.9998 24.1021 32.8418 23.7205 32.5605 23.4392C32.2792 23.1579 31.8977 22.9999 31.4998 22.9999Z" fill="#1E854C"/>
</svg>
