<svg width="33" height="24" viewBox="0 0 33 24" fill="none" xmlns="http://www.w3.org/2000/svg">
<path d="M10.2461 23.8676V22.2783C10.2556 22.145 10.2358 22.0113 10.1881 21.886C10.1404 21.7607 10.0659 21.6468 9.96944 21.5518C9.873 21.4568 9.75691 21.3829 9.62888 21.3351C9.50086 21.2873 9.36384 21.2666 9.22697 21.2744C9.04735 21.263 8.86786 21.2987 8.70725 21.3779C8.54663 21.4571 8.41078 21.5769 8.31386 21.7247C8.22552 21.5813 8.09911 21.4638 7.94797 21.3846C7.79683 21.3053 7.62657 21.2673 7.4551 21.2744C7.30564 21.2671 7.15679 21.2979 7.02332 21.3639C6.88985 21.4299 6.77638 21.5287 6.69417 21.6506V21.338H6.12891V23.8676H6.69961V22.4664C6.68697 22.3797 6.69424 22.2914 6.72092 22.2078C6.74761 22.1242 6.79302 22.0474 6.85388 21.983C6.91475 21.9186 6.98953 21.8682 7.07283 21.8355C7.15613 21.8027 7.24586 21.7884 7.33553 21.7936C7.71056 21.7936 7.90078 22.032 7.90078 22.4611V23.8676H8.47148V22.4664C8.45984 22.3799 8.46783 22.2919 8.49488 22.2088C8.52193 22.1256 8.56738 22.0492 8.62804 21.9851C8.68869 21.9209 8.76306 21.8705 8.84589 21.8374C8.92872 21.8043 9.01799 21.7894 9.1074 21.7936C9.4933 21.7936 9.67809 22.032 9.67809 22.4611V23.8676H10.2461ZM13.4257 22.6041V21.3407H12.855V21.6479C12.7591 21.5274 12.6352 21.4308 12.4934 21.3663C12.3516 21.3019 12.196 21.2713 12.0397 21.2771C11.6793 21.2771 11.3337 21.4166 11.0789 21.665C10.824 21.9134 10.6809 22.2502 10.6809 22.6015C10.6809 22.9527 10.824 23.2896 11.0789 23.5379C11.3337 23.7863 11.6793 23.9258 12.0397 23.9258C12.196 23.9317 12.3516 23.9011 12.4934 23.8366C12.6352 23.7721 12.7591 23.6756 12.855 23.555V23.8623H13.4202L13.4257 22.6041ZM11.325 22.6041C11.334 22.4551 11.3875 22.3118 11.479 22.1921C11.5705 22.0723 11.6959 21.9812 11.8398 21.93C11.9837 21.8789 12.1398 21.8698 12.2889 21.904C12.4381 21.9382 12.5737 22.0142 12.679 22.1226C12.7844 22.231 12.855 22.367 12.882 22.514C12.9091 22.6609 12.8914 22.8124 12.8313 22.9497C12.7711 23.087 12.6711 23.2042 12.5435 23.2868C12.4159 23.3694 12.2663 23.4138 12.1131 23.4146C12.0049 23.4171 11.8974 23.3975 11.7974 23.3572C11.6975 23.3168 11.6072 23.2566 11.5325 23.1803C11.4578 23.104 11.4003 23.0133 11.3636 22.9141C11.327 22.8149 11.3119 22.7093 11.3195 22.6041H11.325ZM25.5027 21.2797C25.6888 21.2793 25.8732 21.3134 26.0462 21.3804C26.2113 21.4448 26.3618 21.5402 26.4892 21.6612C26.6149 21.781 26.7147 21.9242 26.7827 22.0823C26.9246 22.4219 26.9246 22.8022 26.7827 23.1418C26.7148 23.2999 26.615 23.4432 26.4892 23.563C26.3618 23.6839 26.2113 23.7793 26.0462 23.8437C25.6878 23.9794 25.2903 23.9794 24.932 23.8437C24.7677 23.7793 24.618 23.6839 24.4917 23.563C24.3672 23.4427 24.2684 23.2995 24.2009 23.1418C24.0592 22.8021 24.0592 22.422 24.2009 22.0823C24.2684 21.9246 24.3672 21.7814 24.4917 21.6612C24.618 21.5402 24.7677 21.4448 24.932 21.3804C25.1111 21.308 25.3033 21.2711 25.4972 21.2718L25.5027 21.2797ZM25.5027 21.8095C25.392 21.808 25.2821 21.8278 25.1793 21.8678C25.0824 21.9056 24.9946 21.9624 24.9211 22.0346C24.8462 22.1107 24.7879 22.2008 24.7499 22.2995C24.6669 22.511 24.6669 22.7449 24.7499 22.9564C24.7878 23.0551 24.8461 23.1453 24.9211 23.2213C24.9945 23.2936 25.0824 23.3504 25.1793 23.3881C25.3863 23.4671 25.6163 23.4671 25.8233 23.3881C25.9249 23.3516 26.0174 23.2947 26.0951 23.2213C26.1702 23.1454 26.2285 23.0552 26.2663 22.9564C26.3493 22.7449 26.3493 22.511 26.2663 22.2995C26.2285 22.2007 26.1702 22.1105 26.0951 22.0346C26.0174 21.9612 25.9249 21.9043 25.8233 21.8678C25.7208 21.822 25.6099 21.7968 25.4972 21.7936L25.5027 21.8095ZM16.4965 22.6041C16.4965 21.8095 15.9911 21.2797 15.2655 21.2797C14.9051 21.2847 14.5615 21.4289 14.3102 21.6808C14.059 21.9326 13.9207 22.2714 13.9257 22.6227C13.9307 22.9739 14.0787 23.3088 14.3371 23.5537C14.5955 23.7986 14.9431 23.9334 15.3035 23.9285C15.6904 23.9414 16.0686 23.815 16.3661 23.5735L16.0943 23.1656C15.8798 23.3334 15.6139 23.4266 15.3388 23.4305C15.152 23.4462 14.9663 23.3902 14.8211 23.2744C14.676 23.1587 14.5829 22.9923 14.5616 22.8107H16.4884C16.4965 22.7445 16.4965 22.6783 16.4965 22.6041ZM14.5643 22.3816C14.5748 22.2135 14.6517 22.0558 14.7789 21.9417C14.9061 21.8277 15.0737 21.766 15.2465 21.7698C15.331 21.768 15.4152 21.7825 15.494 21.8124C15.5728 21.8424 15.6448 21.8871 15.7059 21.9442C15.767 22.0013 15.8159 22.0695 15.8499 22.145C15.8839 22.2205 15.9023 22.3018 15.9041 22.3843L14.5643 22.3816ZM18.8744 21.9843C18.6263 21.845 18.3455 21.7702 18.0592 21.7671C17.7494 21.7671 17.5646 21.8784 17.5646 22.0638C17.5646 22.2492 17.7602 22.281 18.0048 22.3127L18.2766 22.3498C18.8418 22.4293 19.1843 22.6624 19.1843 23.1074C19.1843 23.5524 18.7494 23.9338 18.0021 23.9338C17.6016 23.9442 17.2082 23.829 16.8797 23.6053L17.1515 23.1762C17.4009 23.3566 17.7053 23.4499 18.0157 23.4411C18.4016 23.4411 18.6081 23.3299 18.6081 23.1339C18.6081 22.9908 18.4614 22.9114 18.1516 22.869L17.8798 22.8319C17.2982 22.7524 16.983 22.4982 16.983 22.085C16.983 21.5817 17.4069 21.2744 18.07 21.2744C18.4412 21.2623 18.8081 21.3543 19.1272 21.5393L18.8744 21.9843ZM21.592 21.8413H20.6708V22.9829C20.6708 23.2478 20.7632 23.4067 21.0458 23.4067C21.2222 23.401 21.3943 23.3518 21.5458 23.2637L21.7089 23.7351C21.497 23.864 21.2521 23.9319 21.0023 23.9311C20.3338 23.9311 20.1001 23.5815 20.1001 22.9935V21.8413H19.5729V21.338H20.1001V20.5699H20.6708V21.338H21.592V21.8413ZM23.546 21.2744C23.6831 21.275 23.8191 21.2983 23.9482 21.3433L23.7743 21.8731C23.662 21.8294 23.5419 21.8078 23.421 21.8095C23.0514 21.8095 22.8775 22.0426 22.8775 22.4611V23.8782H22.3122V21.3486H22.872V21.6559C22.9414 21.5397 23.0416 21.444 23.1622 21.3787C23.2827 21.3134 23.4191 21.2811 23.5569 21.285L23.546 21.2744ZM27.4539 23.4994C27.4892 23.499 27.5243 23.5053 27.5572 23.5179C27.5884 23.5303 27.617 23.5483 27.6414 23.5709C27.6653 23.5937 27.6846 23.6207 27.6985 23.6504C27.7123 23.6813 27.7194 23.7147 27.7194 23.7484C27.7194 23.7821 27.7123 23.8154 27.6985 23.8464C27.6846 23.8761 27.6653 23.903 27.6414 23.9258C27.617 23.9484 27.5884 23.9664 27.5572 23.9788C27.5246 23.9928 27.4895 24 27.4539 24C27.4024 23.9996 27.352 23.985 27.3087 23.9578C27.2654 23.9306 27.231 23.8919 27.2093 23.8464C27.1957 23.8154 27.1887 23.7821 27.1887 23.7484C27.1887 23.7147 27.1957 23.6813 27.2093 23.6504C27.2232 23.6207 27.2425 23.5937 27.2664 23.5709C27.2909 23.5483 27.3194 23.5303 27.3506 23.5179C27.3792 23.5068 27.4096 23.5006 27.4403 23.4994H27.4539ZM27.4539 23.947C27.481 23.9472 27.5079 23.9418 27.5327 23.9311C27.5561 23.921 27.5773 23.9066 27.5952 23.8888C27.6183 23.8661 27.6353 23.8384 27.6449 23.8079C27.6544 23.7774 27.6562 23.7451 27.65 23.7137C27.6439 23.6824 27.63 23.6531 27.6095 23.6282C27.5891 23.6033 27.5627 23.5836 27.5327 23.5709C27.5079 23.5603 27.481 23.5549 27.4539 23.555C27.4268 23.5551 27.4 23.5605 27.3751 23.5709C27.3507 23.5807 27.3285 23.5951 27.3099 23.6133C27.2759 23.6494 27.257 23.6967 27.257 23.7457C27.257 23.7948 27.2759 23.842 27.3099 23.8782C27.3287 23.8967 27.3511 23.9114 27.3759 23.9215C27.4006 23.9315 27.4271 23.9365 27.4539 23.9364V23.947ZM27.4702 23.6318C27.4956 23.6306 27.5206 23.6381 27.5409 23.653C27.5492 23.6597 27.5557 23.6683 27.56 23.6779C27.5643 23.6876 27.5661 23.6981 27.5653 23.7086C27.5657 23.7174 27.5642 23.7262 27.561 23.7344C27.5577 23.7426 27.5527 23.7501 27.5463 23.7563C27.5306 23.7703 27.5105 23.7787 27.4892 23.7801L27.568 23.8676H27.5055L27.4322 23.7801H27.4077V23.8676H27.3561V23.6239L27.4702 23.6318ZM27.4104 23.6769V23.7404H27.4702C27.4809 23.7435 27.4922 23.7435 27.5028 23.7404C27.5047 23.7367 27.5057 23.7326 27.5057 23.7285C27.5057 23.7244 27.5047 23.7203 27.5028 23.7166C27.5047 23.7129 27.5057 23.7088 27.5057 23.7047C27.5057 23.7005 27.5047 23.6964 27.5028 23.6927C27.4922 23.6897 27.4809 23.6897 27.4702 23.6927L27.4104 23.6769Z" fill="#000008"/>
<path d="M20.7768 2.03931H12.2163V17.0338H20.7768V2.03931Z" fill="#7673C0"/>
<path d="M12.7598 9.53791C12.7583 8.09362 13.0939 6.66792 13.7413 5.36877C14.3887 4.06961 15.3309 2.93106 16.4965 2.03933C15.0533 0.933806 13.32 0.246344 11.4948 0.0555188C9.66961 -0.135307 7.82617 0.178199 6.17514 0.960211C4.52412 1.74222 3.13214 2.96119 2.15828 4.47779C1.18442 5.99439 0.667969 7.74744 0.667969 9.53658C0.667969 11.3257 1.18442 13.0788 2.15828 14.5954C3.13214 16.112 4.52412 17.3309 6.17514 18.113C7.82617 18.895 9.66961 19.2085 11.4948 19.0176C13.32 18.8268 15.0533 18.1394 16.4965 17.0338C15.3312 16.1424 14.3893 15.0043 13.7419 13.7056C13.0945 12.4069 12.7587 10.9817 12.7598 9.53791Z" fill="#EB001B"/>
<path d="M31.3917 15.4446V15.1479H31.5194V15.0843H31.196V15.1479H31.3238V15.4552L31.3917 15.4446ZM32.0195 15.4446V15.0737H31.9216L31.8075 15.3386L31.6934 15.0737H31.5928V15.4446H31.6635V15.1665L31.7695 15.4075H31.8428L31.9488 15.1665V15.4472L32.0195 15.4446Z" fill="#00A1DF"/>
<path d="M32.3238 9.53789C32.3234 11.3267 31.8067 13.0793 30.8328 14.5955C29.8589 16.1117 28.4671 17.3303 26.8163 18.1121C25.1656 18.8939 23.3225 19.2074 21.4976 19.0167C19.6728 18.826 17.9398 18.1389 16.4965 17.0338C17.6614 16.1416 18.6031 15.0031 19.2507 13.7044C19.8982 12.4057 20.2347 10.9805 20.2347 9.53656C20.2347 8.09259 19.8982 6.66747 19.2507 5.36873C18.6031 4.06999 17.6614 2.93158 16.4965 2.03933C17.9397 0.933461 19.673 0.245645 21.4983 0.0545457C23.3236 -0.136554 25.1672 0.176755 26.8185 0.958655C28.4697 1.74056 29.8619 2.95949 30.8359 4.47615C31.81 5.9928 32.3265 7.74596 32.3266 9.53524L32.3238 9.53789Z" fill="#00A1DF"/>
</svg>
