<svg width="93" height="16" viewBox="0 0 93 16" fill="none" xmlns="http://www.w3.org/2000/svg">
<path d="M41.0712 10.5748V7.44733C41.0712 6.24956 40.2689 5.46768 38.9013 5.46768C38.2083 5.46768 37.479 5.68395 36.9502 6.34938C36.549 5.78376 35.9837 5.46768 35.1267 5.46768C34.5614 5.46768 33.9779 5.61741 33.5221 6.19966V5.5675H32.3368V10.5748H33.5403V7.81331C33.5403 6.93162 34.0509 6.51573 34.8532 6.51573C35.6555 6.51573 36.0567 6.98153 36.0567 7.81331V10.5748H37.2601V7.81331C37.2601 6.93162 37.8254 6.51573 38.573 6.51573C39.3754 6.51573 39.7765 6.98153 39.7765 7.81331V10.5748H41.0712ZM58.8499 5.5675H56.8988V4.05365H55.6953V5.5675H54.6012V6.56564H55.6953V8.86136C55.6953 10.0092 56.2059 10.6913 57.5735 10.6913C58.084 10.6913 58.6675 10.5416 59.0505 10.3253L58.704 9.3937C58.3576 9.60996 57.9564 9.65987 57.6829 9.65987C57.1176 9.65987 56.8806 9.34379 56.8806 8.82809V6.58227H58.8317V5.5675H58.8499ZM69.0066 5.46768C68.3136 5.46768 67.8578 5.78377 67.5843 6.19966V5.5675H66.3808V10.5748H67.5843V7.76341C67.5843 6.93163 67.9854 6.46582 68.733 6.46582C68.9701 6.46582 69.2436 6.51573 69.4807 6.56564L69.8271 5.51759C69.5901 5.46769 69.2436 5.46768 69.0066 5.46768ZM53.6348 5.98339C53.0695 5.61741 52.2672 5.46768 51.4102 5.46768C50.0426 5.46768 49.1309 6.09984 49.1309 7.08134C49.1309 7.91313 49.8238 8.37892 51.009 8.54528L51.5743 8.59519C52.1943 8.695 52.5407 8.86136 52.5407 9.1109C52.5407 9.47688 52.0849 9.74305 51.2825 9.74305C50.4802 9.74305 49.8602 9.47688 49.4591 9.22734L48.8938 10.0591C49.5138 10.475 50.3708 10.6913 51.2278 10.6913C52.8325 10.6913 53.7442 10.0092 53.7442 9.07762C53.7442 8.19593 52.9966 7.73013 51.8661 7.56378L51.3008 7.51387C50.7902 7.46397 50.389 7.36415 50.389 7.04807C50.389 6.68209 50.7902 6.48246 51.4102 6.48246C52.1031 6.48246 52.7778 6.74863 53.1242 6.89835L53.6348 5.98339ZM85.5271 5.46768C84.8342 5.46768 84.3783 5.78377 84.1048 6.19966V5.5675H82.9013V10.5748H84.1048V7.76341C84.1048 6.93163 84.506 6.46582 85.2536 6.46582C85.4906 6.46582 85.7641 6.51573 86.0012 6.56564L86.3476 5.51759C86.0924 5.46769 85.7459 5.46768 85.5271 5.46768ZM70.21 8.06285C70.21 9.57669 71.3588 10.6746 73.1276 10.6746C73.9299 10.6746 74.4952 10.5249 75.0787 10.109L74.5134 9.22734C74.0575 9.54342 73.6017 9.69314 73.0911 9.69314C72.1247 9.69314 71.4318 9.06099 71.4318 8.07948C71.4318 7.14789 72.1247 6.51573 73.0911 6.46582C73.6017 6.46582 74.0575 6.61555 74.5134 6.93162L75.0787 6.04993C74.5134 5.63404 73.9299 5.48432 73.1276 5.48432C71.3588 5.46769 70.21 6.56564 70.21 8.06285ZM81.2967 5.5675H80.0932V6.19966C79.692 5.73386 79.1267 5.46768 78.3791 5.46768C76.8292 5.46768 75.6439 6.56564 75.6439 8.07948C75.6439 9.59333 76.8474 10.6913 78.3791 10.6913C79.1814 10.6913 79.7467 10.4251 80.0932 9.95931V10.5915H81.2967V5.5675ZM76.9021 8.06285C76.9021 7.18116 77.5221 6.44919 78.5615 6.44919C79.5279 6.44919 80.2208 7.13125 80.2208 8.06285C80.2208 8.94454 79.5279 9.67651 78.5615 9.67651C77.5221 9.6266 76.9021 8.96117 76.9021 8.06285ZM62.5515 5.46768C60.9469 5.46768 59.8163 6.51573 59.8163 8.07948C59.8163 9.64324 60.9651 10.6913 62.6245 10.6913C63.4268 10.6913 64.2291 10.475 64.8491 10.0092L64.2838 9.22734C63.8279 9.54342 63.2627 9.74305 62.6791 9.74305C61.9315 9.74305 61.2022 9.42697 61.0198 8.54528H65.0679V8.12939C65.1226 6.49909 64.1015 5.46768 62.5515 5.46768ZM62.5515 6.39928C63.2991 6.39928 63.8097 6.81518 63.9191 7.59705H61.0563C61.1839 6.93162 61.6945 6.39928 62.5515 6.39928ZM92.3286 3.58786H91.1251V6.19966C90.7239 5.73386 90.1587 5.46768 89.4111 5.46768C87.8611 5.46768 86.6759 6.56564 86.6759 8.07948C86.6759 9.59333 87.8793 10.6913 89.4111 10.6913C90.2134 10.6913 90.7786 10.4251 91.1251 9.95931V10.5915H92.3286V3.58786ZM87.9158 8.06285C87.9158 7.18116 88.5358 6.44919 89.5752 6.44919C90.5416 6.44919 91.2345 7.13125 91.2345 8.06285C91.2345 8.94454 90.5416 9.67651 89.5752 9.67651C88.554 9.6266 87.9158 8.96117 87.9158 8.06285ZM47.818 5.5675H46.6145V6.19966C46.2133 5.73386 45.6481 5.46768 44.9004 5.46768C43.3505 5.46768 42.1652 6.56564 42.1652 8.07948C42.1652 9.59333 43.3687 10.6913 44.9004 10.6913C45.7028 10.6913 46.268 10.4251 46.6145 9.95931V10.5915H47.818V5.5675ZM43.3687 8.06285C43.3687 7.18116 43.9887 6.44919 45.0281 6.44919C45.9945 6.44919 46.6874 7.13125 46.6874 8.06285C46.6874 8.94454 45.9945 9.67651 45.0281 9.67651C43.9887 9.6266 43.3687 8.96117 43.3687 8.06285Z" fill="#000008"/>
<path d="M17.2362 2.1024H10.043V13.891H17.2362V2.1024Z" fill="#FF5F00"/>
<path d="M10.4949 8C10.4949 5.60638 11.7265 3.47872 13.6214 2.10239C12.2294 1.10505 10.473 0.5 8.54898 0.5C4.00856 0.5 0.328125 3.85106 0.328125 8C0.328125 12.1423 4.00127 15.5 8.54898 15.5C10.4657 15.5 12.2221 14.8949 13.6214 13.8976C11.7265 12.5412 10.4949 10.3936 10.4949 8Z" fill="#EB001B"/>
<path d="M26.9366 8C26.9366 12.1423 23.2634 15.5 18.7157 15.5C16.799 15.5 15.0426 14.8949 13.6433 13.8976C15.56 12.5213 16.7698 10.4003 16.7698 8C16.7698 5.60638 15.5381 3.47873 13.6433 2.1024C15.0353 1.10506 16.7917 0.500003 18.7157 0.500003C23.2634 0.500003 26.9366 3.87101 26.9366 8Z" fill="#F79E1B"/>
</svg>
