<svg width="48" height="48" viewBox="0 0 48 48" fill="none" xmlns="http://www.w3.org/2000/svg">
<path d="M37.4998 26.9999H23.1186L27.3205 22.798C28.8396 23.5631 30.5134 23.971 32.2142 23.9905C33.9261 23.995 35.606 23.5266 37.0686 22.6368C41.5161 19.9443 43.8992 13.7118 43.4436 5.96428C43.4221 5.59731 43.2667 5.25099 43.0068 4.99107C42.7469 4.73114 42.4005 4.57571 42.0336 4.55428C34.2861 4.09865 28.0536 6.48178 25.3592 10.9293C23.6061 13.8262 23.5611 17.3249 25.198 20.6793L22.4998 23.3774L20.2105 21.088C21.3355 18.6037 21.2548 16.0255 19.9498 13.873C17.9117 10.4999 13.2392 8.70178 7.4492 9.04115C7.08288 9.06298 6.73726 9.21834 6.47776 9.47784C6.21827 9.73733 6.06291 10.0829 6.04108 10.4493C5.69983 16.2374 7.49983 20.9099 10.8748 22.9499C12.0039 23.6395 13.3018 24.003 14.6248 23.9999C15.825 23.988 17.0089 23.7202 18.0973 23.2143L20.3792 25.4999L18.8792 26.9999H10.4998C10.102 26.9999 9.72047 27.1579 9.43917 27.4392C9.15787 27.7205 8.99983 28.1021 8.99983 28.4999C8.99983 28.8977 9.15787 29.2793 9.43917 29.5606C9.72047 29.8419 10.102 29.9999 10.4998 29.9999H12.298L14.7748 41.1505C14.9194 41.8187 15.2893 42.4168 15.8226 42.8446C16.3558 43.2724 17.02 43.5037 17.7036 43.4999H30.298C30.9814 43.503 31.6452 43.2714 32.1783 42.8438C32.7114 42.4161 33.0815 41.8184 33.2267 41.1505L35.7036 29.9999H37.4998C37.8977 29.9999 38.2792 29.8419 38.5605 29.5606C38.8418 29.2793 38.9998 28.8977 38.9998 28.4999C38.9998 28.1021 38.8418 27.7205 38.5605 27.4392C38.2792 27.1579 37.8977 26.9999 37.4998 26.9999Z" fill="white"/>
</svg>
