<svg width="21" height="20" viewBox="0 0 21 20" fill="none" xmlns="http://www.w3.org/2000/svg">
<path d="M7.26628 13.3334H13.3189C17.0586 13.3334 17.6274 10.9841 18.3171 7.55765C18.5161 6.56934 18.6156 6.07519 18.3764 5.74597C18.1371 5.41675 17.6785 5.41675 16.7614 5.41675H5.59961" stroke="white" stroke-width="1.5" stroke-linecap="round"/>
<path d="M7.26693 13.3334L5.08254 2.92919C4.89705 2.18724 4.23041 1.66675 3.46564 1.66675H2.68359" stroke="white" stroke-width="1.5" stroke-linecap="round"/>
<path d="M7.99961 13.3333H7.65675C6.52063 13.3333 5.59961 14.2927 5.59961 15.4761C5.59961 15.6733 5.75311 15.8333 5.94247 15.8333H15.1829" stroke="white" stroke-width="1.5" stroke-linecap="round" stroke-linejoin="round"/>
<path d="M9.34961 18.3333C10.04 18.3333 10.5996 17.7736 10.5996 17.0833C10.5996 16.3929 10.04 15.8333 9.34961 15.8333C8.65925 15.8333 8.09961 16.3929 8.09961 17.0833C8.09961 17.7736 8.65925 18.3333 9.34961 18.3333Z" stroke="white" stroke-width="1.5"/>
<path d="M15.1836 18.3333C15.8739 18.3333 16.4336 17.7736 16.4336 17.0833C16.4336 16.3929 15.8739 15.8333 15.1836 15.8333C14.4932 15.8333 13.9336 16.3929 13.9336 17.0833C13.9336 17.7736 14.4932 18.3333 15.1836 18.3333Z" stroke="white" stroke-width="1.5"/>
</svg>
