<svg width="21" height="20" viewBox="0 0 21 20" fill="none" xmlns="http://www.w3.org/2000/svg">
<path d="M10.599 18.3334C15.2013 18.3334 18.9323 14.6025 18.9323 10.0001C18.9323 5.39771 15.2013 1.66675 10.599 1.66675C5.99659 1.66675 2.26562 5.39771 2.26562 10.0001C2.26562 14.6025 5.99659 18.3334 10.599 18.3334Z" stroke="white" stroke-width="1.5"/>
<path d="M6.84961 14.1666C8.79269 12.1314 12.3856 12.0356 14.3496 14.1666M12.6789 7.91659C12.6789 9.06717 11.7448 9.99992 10.5925 9.99992C9.44036 9.99992 8.50625 9.06717 8.50625 7.91659C8.50625 6.76599 9.44036 5.83325 10.5925 5.83325C11.7448 5.83325 12.6789 6.76599 12.6789 7.91659Z" stroke="white" stroke-width="1.5" stroke-linecap="round"/>
</svg>
