<svg width="42" height="12" viewBox="0 0 42 12" fill="none" xmlns="http://www.w3.org/2000/svg">
<path d="M20.6322 0.212325L17.8478 11.8185H14.481L17.2657 0.212325H20.6322ZM34.798 7.70649L36.5707 3.34797L37.5907 7.70649H34.798ZM38.5546 11.8185H41.669L38.9513 0.212325H36.0767C35.4308 0.212325 34.8858 0.547341 34.6431 1.06383L29.5918 11.8185H33.1276L33.8295 10.0854H38.1493L38.5546 11.8185ZM29.7673 8.02902C29.7817 4.96575 25.0166 4.79714 25.0496 3.42878C25.0595 3.01185 25.5048 2.56957 26.4774 2.45606C26.9606 2.39985 28.2892 2.35687 29.7978 2.97585L30.3885 0.514648C29.5782 0.252365 28.5355 0 27.2387 0C23.911 0 21.5686 1.57774 21.5488 3.8369C21.5278 5.50758 23.2209 6.43989 24.4967 6.99532C25.8084 7.56433 26.2492 7.92874 26.2434 8.43751C26.2348 9.21664 25.1971 9.55974 24.229 9.57333C22.5359 9.59721 21.5533 9.16595 20.7702 8.84048L20.1601 11.3836C20.9465 11.7058 22.3987 11.9857 23.9052 12C27.4418 12 29.7557 10.4417 29.7673 8.02902ZM15.821 0.212325L10.366 11.8185H6.80628L4.122 2.55597C3.95886 1.98549 3.81715 1.77684 3.32157 1.53623C2.51291 1.14501 1.17612 0.777298 0 0.549546L0.0803306 0.212325H5.80935C6.53933 0.212325 7.1964 0.645789 7.362 1.39554L8.77994 8.11204L12.2836 0.212325H15.821Z" fill="#1434CB"/>
</svg>
