<svg width="24" height="24" viewBox="0 0 24 24" fill="none" xmlns="http://www.w3.org/2000/svg">
<path fill-rule="evenodd" clip-rule="evenodd" d="M1.14286 0C0.511675 0 0 0.511675 0 1.14286C0 1.77404 0.511675 2.28571 1.14286 2.28571C1.97534 2.28571 2.70262 2.89061 2.85236 3.74172L3.63622 8.19736L3.63692 8.2013L4.13915 11.0081C4.45325 12.7636 4.70408 14.1655 5.02121 15.2791C5.34825 16.4275 5.77212 17.3724 6.49202 18.171C6.98647 18.7195 7.56499 19.1891 8.20614 19.5638C9.13493 20.1066 10.1588 20.3455 11.3761 20.46C12.5621 20.5714 14.0321 20.5714 15.8838 20.5714H16.4467C17.2702 20.5714 17.9493 20.5714 18.5086 20.5308C19.0913 20.4884 19.6216 20.398 20.1363 20.1786C20.8867 19.8587 21.5439 19.3558 22.0417 18.7141C22.3854 18.271 22.6 17.7825 22.7759 17.2368C22.9437 16.7161 23.0969 16.0743 23.2808 15.3031L23.304 15.2058C23.5837 14.0337 23.8122 13.076 23.9228 12.294C24.0367 11.4894 24.0491 10.7326 23.79 10.0031C23.4258 8.97761 22.709 8.11427 21.7709 7.55183C21.1101 7.15563 20.3629 7.0006 19.5339 6.928C18.7245 6.85712 17.7103 6.85713 16.4588 6.85714H5.72125L5.1035 3.34569C4.76451 1.41879 3.1021 0 1.14286 0ZM16.4054 9.14286C17.723 9.14286 18.6367 9.14389 19.3345 9.205C20.0242 9.2654 20.369 9.37637 20.5955 9.51217C21.0898 9.80854 21.4538 10.2548 21.6362 10.7681C21.7157 10.9919 21.752 11.3212 21.6597 11.9738C21.5659 12.6369 21.3636 13.4898 21.0676 14.7305C20.871 15.5546 20.7378 16.1094 20.6004 16.5355C20.4681 16.9461 20.3549 17.1595 20.2357 17.3131C19.9807 17.6417 19.6388 17.9059 19.2399 18.076C19.0478 18.1579 18.7954 18.2181 18.3428 18.2511C17.8761 18.285 17.2805 18.2857 16.4054 18.2857H15.9414C14.0193 18.2857 12.6566 18.2845 11.5901 18.1843C10.5426 18.0858 9.8877 17.8991 9.35945 17.5903C8.91925 17.3331 8.52487 17.0123 8.18973 16.6406C7.79181 16.1992 7.49515 15.6209 7.21953 14.6531C6.93759 13.663 6.70569 12.3746 6.37841 10.5456L6.12741 9.14286H16.4054Z" fill="currentColor"/>
<path d="M10.2857 22.5714C10.2857 23.3604 9.64612 24 8.85714 24C8.06816 24 7.42857 23.3604 7.42857 22.5714C7.42857 21.7825 8.06816 21.1429 8.85714 21.1429C9.64612 21.1429 10.2857 21.7825 10.2857 22.5714Z" fill="currentColor"/>
<path d="M19.1429 24C19.9318 24 20.5714 23.3604 20.5714 22.5714C20.5714 21.7825 19.9318 21.1429 19.1429 21.1429C18.3539 21.1429 17.7143 21.7825 17.7143 22.5714C17.7143 23.3604 18.3539 24 19.1429 24Z" fill="currentColor"/>
</svg>
