<svg width="60" height="52" viewBox="0 0 60 52" fill="none" xmlns="http://www.w3.org/2000/svg">
<rect width="60" height="52" rx="6" fill="#F2F1F6"/>
<path fill-rule="evenodd" clip-rule="evenodd" d="M19.1429 14C18.5117 14 18 14.5117 18 15.1429C18 15.774 18.5117 16.2857 19.1429 16.2857C19.9753 16.2857 20.7026 16.8906 20.8524 17.7417L21.6362 22.1974L21.6369 22.2013L22.1391 25.0081C22.4533 26.7636 22.7041 28.1655 23.0212 29.2791C23.3483 30.4275 23.7721 31.3724 24.492 32.171C24.9865 32.7195 25.565 33.1891 26.2061 33.5638C27.1349 34.1066 28.1588 34.3455 29.3761 34.46C30.5621 34.5714 32.0321 34.5714 33.8838 34.5714H34.4467C35.2702 34.5714 35.9493 34.5714 36.5086 34.5308C37.0913 34.4884 37.6216 34.398 38.1363 34.1786C38.8867 33.8587 39.5439 33.3558 40.0417 32.7141C40.3854 32.271 40.6 31.7825 40.7759 31.2368C40.9437 30.7161 41.0969 30.0743 41.2808 29.3031L41.304 29.2058C41.5837 28.0337 41.8122 27.076 41.9228 26.294C42.0367 25.4894 42.0491 24.7326 41.79 24.0031C41.4258 22.9776 40.709 22.1143 39.7709 21.5518C39.1101 21.1556 38.3629 21.0006 37.5339 20.928C36.7245 20.8571 35.7103 20.8571 34.4588 20.8571H23.7213L23.1035 17.3457C22.7645 15.4188 21.1021 14 19.1429 14ZM34.4054 23.1429C35.723 23.1429 36.6367 23.1439 37.3345 23.205C38.0242 23.2654 38.369 23.3764 38.5955 23.5122C39.0898 23.8085 39.4538 24.2548 39.6362 24.7681C39.7157 24.9919 39.752 25.3212 39.6597 25.9738C39.5659 26.6369 39.3636 27.4898 39.0676 28.7305C38.871 29.5546 38.7378 30.1094 38.6004 30.5355C38.4681 30.9461 38.3549 31.1595 38.2357 31.3131C37.9807 31.6417 37.6388 31.9059 37.2399 32.076C37.0478 32.1579 36.7954 32.2181 36.3428 32.2511C35.8761 32.285 35.2805 32.2857 34.4054 32.2857H33.9414C32.0193 32.2857 30.6566 32.2845 29.5901 32.1843C28.5426 32.0858 27.8877 31.8991 27.3594 31.5903C26.9192 31.3331 26.5249 31.0123 26.1897 30.6406C25.7918 30.1992 25.4952 29.6209 25.2195 28.6531C24.9376 27.663 24.7057 26.3746 24.3784 24.5456L24.1274 23.1429H34.4054Z" fill="#848484"/>
<path d="M28.2857 36.5714C28.2857 37.3604 27.6461 38 26.8571 38C26.0682 38 25.4286 37.3604 25.4286 36.5714C25.4286 35.7825 26.0682 35.1429 26.8571 35.1429C27.6461 35.1429 28.2857 35.7825 28.2857 36.5714Z" fill="#848484"/>
<path d="M37.1429 38C37.9318 38 38.5714 37.3604 38.5714 36.5714C38.5714 35.7825 37.9318 35.1429 37.1429 35.1429C36.3539 35.1429 35.7143 35.7825 35.7143 36.5714C35.7143 37.3604 36.3539 38 37.1429 38Z" fill="#848484"/>
</svg>
