<svg width="22" height="24" viewBox="0 0 22 24" fill="none" xmlns="http://www.w3.org/2000/svg">
<g clip-path="url(#clip0_2346_661)">
<path d="M20.292 18.7033C19.9291 19.5418 19.4994 20.3136 19.0017 21.0232C18.3232 21.9906 17.7676 22.6602 17.3395 23.032C16.6758 23.6424 15.9647 23.955 15.2033 23.9728C14.6566 23.9728 13.9974 23.8172 13.23 23.5017C12.4601 23.1876 11.7526 23.032 11.1056 23.032C10.4271 23.032 9.69943 23.1876 8.92108 23.5017C8.14155 23.8172 7.51357 23.9816 7.03343 23.9979C6.30323 24.0291 5.5754 23.7076 4.84891 23.032C4.38522 22.6276 3.80524 21.9343 3.11044 20.9521C2.36498 19.9033 1.75211 18.687 1.27198 17.3004C0.75777 15.8026 0.5 14.3523 0.5 12.9482C0.5 11.3398 0.847545 9.95259 1.54367 8.79011C2.09077 7.85636 2.8186 7.11979 3.72953 6.57906C4.64047 6.03834 5.62474 5.76279 6.68471 5.74516C7.26469 5.74516 8.02526 5.92456 8.97041 6.27715C9.9129 6.63091 10.5181 6.81031 10.7834 6.81031C10.9818 6.81031 11.654 6.60054 12.7937 6.18233C13.8715 5.79449 14.7811 5.63391 15.5262 5.69716C17.5454 5.86012 19.0624 6.6561 20.0713 8.09013C18.2654 9.18432 17.3721 10.7169 17.3899 12.6829C17.4062 14.2142 17.9617 15.4886 19.0535 16.5004C19.5483 16.97 20.1009 17.333 20.7157 17.5907C20.5824 17.9774 20.4416 18.3477 20.292 18.7033ZM15.661 0.480137C15.661 1.68041 15.2225 2.8011 14.3485 3.8384C13.2937 5.07155 12.0179 5.78412 10.6344 5.67168C10.6167 5.52769 10.6065 5.37614 10.6065 5.21688C10.6065 4.06462 11.1081 2.83147 11.9989 1.82321C12.4436 1.3127 13.0093 0.888228 13.6952 0.549615C14.3796 0.216055 15.027 0.031589 15.6358 0C15.6536 0.160458 15.661 0.320942 15.661 0.480137Z" fill="black"/>
</g>
<defs>
<clipPath id="clip0_2346_661">
<rect width="21" height="24" fill="white" transform="translate(0.5)"/>
</clipPath>
</defs>
</svg>
