<svg width="20" height="20" viewBox="0 0 20 20" fill="none" xmlns="http://www.w3.org/2000/svg">
<path d="M15.0013 9.16428C14.6745 8.49736 13.7914 7.51797 11.9766 7.55965C11.9766 7.55965 10.5373 7.49713 8.91017 7.49713C7.28313 7.49713 6.52141 7.53523 5.218 7.55965C4.38361 7.53881 2.79825 7.72636 2.06816 9.45603C1.58838 10.9147 1.56752 13.978 1.85956 15.5201C1.92214 16.312 2.33933 17.4165 3.63265 18C4.42532 18.4168 5.69778 18.25 6.65734 18.3334M4.98855 6.83028C4.94682 4.85057 4.86338 3.28765 7.15797 1.99563C7.92979 1.68305 9.07709 1.41214 10.4956 2.07899C11.9766 2.97506 12.1611 3.92338 12.2895 4.16289C12.6441 5.10065 12.4564 6.43434 12.4981 6.97616" stroke="#1E1E1E" stroke-opacity="0.5" stroke-width="1.5" stroke-linecap="round"/>
<path d="M12.918 16.4458C12.918 17.4826 12.0772 18.3046 11.0473 18.3046C10.0175 18.3046 9.16797 17.4826 9.16797 16.4458C9.16797 15.4092 10.0175 14.5762 11.0473 14.5762C12.0772 14.5762 12.918 15.4092 12.918 16.4458Z" stroke="#1E1E1E" stroke-opacity="0.5" stroke-width="1.5"/>
<path d="M12.6875 14.8257L14.3462 13.2068M14.3462 13.2068L15.5219 12.0755C15.7917 11.8457 16.3333 11.3076 16.9775 11.924L18.3333 13.2068M14.3462 13.2068L15.6875 14.4946" stroke="#1E1E1E" stroke-opacity="0.7" stroke-width="1.5" stroke-linecap="round"/>
</svg>
