<svg width="20" height="20" viewBox="0 0 20 20" fill="none" xmlns="http://www.w3.org/2000/svg">
<path d="M1.66797 5L7.42882 8.26414C9.55264 9.4675 10.45 9.4675 12.5738 8.26414L18.3346 5" stroke="#1E1E1E" stroke-opacity="0.5" stroke-width="1.5" stroke-linejoin="round"/>
<path d="M1.68111 11.2297C1.73559 13.7844 1.76283 15.0617 2.70544 16.0079C3.64804 16.9541 4.95991 16.987 7.58366 17.0529C9.20072 17.0936 10.8019 17.0936 12.419 17.0529C15.0427 16.987 16.3546 16.9541 17.2972 16.0079C18.2398 15.0617 18.2671 13.7844 18.3215 11.2297C18.3391 10.4083 18.3391 9.59183 18.3215 8.77042C18.2671 6.2158 18.2398 4.93849 17.2972 3.9923C16.3546 3.04611 15.0427 3.01315 12.419 2.94722C10.8019 2.90659 9.20072 2.90659 7.58365 2.94722C4.95991 3.01313 3.64804 3.04609 2.70543 3.99229C1.76282 4.93848 1.73559 6.21579 1.6811 8.77042C1.66359 9.59183 1.66359 10.4083 1.68111 11.2297Z" stroke="#1E1E1E" stroke-opacity="0.5" stroke-width="1.5" stroke-linejoin="round"/>
</svg>
