<svg width="128" height="37" viewBox="0 0 128 37" fill="none" xmlns="http://www.w3.org/2000/svg">
<path d="M5.76 2.72C6.16 2.4 6.6 2.2 7.08 2.12H7.2C7.62667 2.12 7.90667 2.30666 8.04 2.68C8.2 2.97333 8.30667 3.37333 8.36 3.88C8.41333 4.14667 8.44 4.33333 8.44 4.44C8.81333 5.74667 9.14667 6.89333 9.44 7.88C9.76 8.84 10.0267 9.65333 10.24 10.32C10.4533 11.04 10.7867 12.1333 11.24 13.6C11.6933 15.04 12.08 16.32 12.4 17.44C12.5067 17.7867 12.5733 18.0133 12.6 18.12C12.6 17.3733 12.5733 16.2533 12.52 14.76L12.48 13.08L12.44 12.04C12.4133 10.9467 12.36 10.04 12.28 9.32C12.2267 8.6 12.1067 7.89333 11.92 7.2C11.92 6.50666 12.0267 5.89333 12.24 5.36L12.72 4.32C13.0133 3.76 13.4533 3.2 14.04 2.64C14.4667 2.26666 14.9333 2.04 15.44 1.96C15.8933 1.96 16.24 2.16 16.48 2.56C16.88 3.6 17.1067 4.73333 17.16 5.96C17.16 6.70666 17.1733 7.25333 17.2 7.6C17.2 8.98666 17.2133 10.0133 17.24 10.68C17.24 12.1467 17.2133 14.32 17.16 17.2C17.16 18.6667 17.08 20.84 16.92 23.72L16.88 24.56C16.8533 24.8533 16.8133 25.36 16.76 26.08C16.7333 26.8 16.68 27.44 16.6 28C16.36 29.7867 16.0667 31.2 15.72 32.24C15.4267 33.0133 15.16 33.6133 14.92 34.04C14.6533 34.5467 14.2 35.0933 13.56 35.68C13.1067 36.08 12.6667 36.28 12.24 36.28C12.08 36.28 11.92 36.24 11.76 36.16C11.3333 35.9467 10.9733 35.3867 10.68 34.48C10.44 33.7333 10.2 32.8533 9.96 31.84C9.8 31.0933 9.69333 30.5333 9.64 30.16C9.34667 28.6667 9.13333 27.6533 9 27.12C8.70667 25.6267 8.21333 23.4133 7.52 20.48C6.64 25.92 5.28 30.4267 3.44 34C3.25333 34.4 2.98667 34.7733 2.64 35.12C2.32 35.4667 1.98667 35.72 1.64 35.88C1.45333 35.9867 1.24 36.04 1 36.04C0.786667 36.04 0.626667 36.0133 0.52 35.96C0.173333 35.72 1.49012e-08 35.3067 1.49012e-08 34.72C1.49012e-08 34.48 0.0133334 34.3067 0.04 34.2C0.173333 33.5333 0.386667 32.9467 0.68 32.44L0.76 32.28C1.24 31.1867 1.66667 29.9867 2.04 28.68C2.46667 26.8933 2.8 25.0533 3.04 23.16C3.28 21.2667 3.49333 19.1067 3.68 16.68C3.73333 15.3467 3.76 14.3733 3.76 13.76L3.72 11.68C3.72 11.2 3.70667 10.8267 3.68 10.56C3.68 10.3733 3.66667 10.1467 3.64 9.88C3.64 9.58666 3.65333 9.25333 3.68 8.88C3.68 7.97333 3.69333 7.26667 3.72 6.76C3.77333 6.22667 3.89333 5.72 4.08 5.24C4.50667 4.14666 5.06667 3.30666 5.76 2.72ZM30.6588 2.76C31.3788 2.6 32.0454 2.52 32.6588 2.52C34.9788 2.52 36.7121 3.52 37.8588 5.52C39.0054 7.49333 39.5788 10.0667 39.5788 13.24C39.5788 16.5467 38.9921 19.96 37.8188 23.48C36.6721 26.9733 35.0854 29.88 33.0588 32.2C31.0588 34.52 28.8321 35.68 26.3788 35.68C25.2321 35.68 24.1121 35.4133 23.0188 34.88C21.6854 34.2133 20.6854 33.08 20.0188 31.48C19.3788 29.88 19.0588 27.96 19.0588 25.72C19.0588 22.68 19.5921 19.4533 20.6588 16.04C21.7521 12.6 23.1921 9.64 24.9788 7.16C26.7654 4.68 28.6588 3.21333 30.6588 2.76ZM29.9388 9.24C28.5521 9.26667 27.2854 9.98667 26.1388 11.4C25.0188 12.7867 24.1254 14.5333 23.4588 16.64C22.8188 18.72 22.4988 20.76 22.4988 22.76C22.4988 24.7867 22.8588 26.44 23.5788 27.72C24.2988 28.9733 25.3788 29.6 26.8188 29.6C27.4054 29.6 27.9921 29.5067 28.5788 29.32C29.8054 28.92 30.9388 28.0133 31.9788 26.6C33.0454 25.1867 33.8854 23.5333 34.4988 21.64C35.1121 19.72 35.4188 17.8667 35.4188 16.08C35.4188 14 34.9654 12.3333 34.0588 11.08C33.1788 9.8 31.8054 9.18667 29.9388 9.24ZM44.7747 30.28L44.6547 30.56L44.7747 30.28ZM58.2947 9.48C58.348 9.93333 58.4547 10.64 58.6147 11.6C58.908 13.6267 59.1214 15.2533 59.2547 16.48C59.388 17.68 59.4547 18.9067 59.4547 20.16C59.4547 21.7867 59.2947 23.4 58.9747 25C58.388 27.5067 57.3347 29.3867 55.8147 30.64C55.2014 31.1467 54.5214 31.5333 53.7747 31.8C53.028 32.0667 52.068 32.3333 50.8947 32.6C50.388 32.7067 49.9747 32.8 49.6547 32.88C49.308 32.96 49.0014 33.0533 48.7347 33.16C48.468 33.24 48.228 33.3067 48.0147 33.36C46.6547 33.7333 45.6014 34 44.8547 34.16C44.1347 34.32 43.4147 34.4 42.6947 34.4C41.8947 34.4 41.3214 34.2533 40.9747 33.96C40.6547 33.6667 40.4947 33.2533 40.4947 32.72C40.4947 32.2133 40.628 31.56 40.8947 30.76C41.028 30.3333 41.3347 29.3867 41.8147 27.92C42.668 25.3333 43.3347 23.12 43.8147 21.28C44.3214 19.4133 44.668 17.5333 44.8547 15.64C44.2947 16.1733 43.788 16.44 43.3347 16.44C42.9614 16.44 42.6414 16.2667 42.3747 15.92C42.108 15.5467 41.908 15.0667 41.7747 14.48C41.6947 14.08 41.6547 13.68 41.6547 13.28C41.6547 12.1867 41.948 10.88 42.5347 9.36C42.9347 8.32 43.5614 7.21333 44.4147 6.04C45.2947 4.84 46.1347 4.24 46.9347 4.24C47.548 4.24 48.0814 4.62667 48.5347 5.4C49.148 6.44 49.4547 7.90667 49.4547 9.8C49.4547 10.8933 49.3747 11.96 49.2147 13C49.0814 14.04 48.8547 15.4267 48.5347 17.16C47.8947 20.5733 46.788 24.5467 45.2147 29.08C45.908 29.0533 46.6014 28.9733 47.2947 28.84C48.0147 28.68 48.9214 28.44 50.0147 28.12L51.0147 27.84C51.2014 27.7867 51.5614 27.7067 52.0947 27.6C52.8414 27.4667 53.468 27.32 53.9747 27.16C54.4814 27 54.828 26.8 55.0147 26.56C55.228 26.2667 55.3347 25.72 55.3347 24.92C55.3347 24.4933 55.268 23.68 55.1347 22.48C55.0547 22.08 55.0147 21.7467 55.0147 21.48C54.9347 20.2 54.708 18.3733 54.3347 16C54.308 15.76 54.2014 15.2267 54.0147 14.4C53.6414 12.6933 53.4547 11.3733 53.4547 10.44C53.4547 9 53.8147 7.85333 54.5347 7C55.228 6.14667 55.8547 5.72 56.4147 5.72C57.348 5.72 57.9747 6.97333 58.2947 9.48ZM67.61 15.12C67.5833 15.3067 67.57 15.5733 67.57 15.92C67.57 16.32 67.5967 16.8667 67.65 17.56C67.7033 18.3067 67.73 18.8667 67.73 19.24C67.9167 19.1067 68.2767 18.9067 68.81 18.64C69.93 18.0533 70.81 17.4933 71.45 16.96C72.09 16.4267 72.41 15.8267 72.41 15.16C72.41 15.0267 72.3967 14.92 72.37 14.84C72.2633 14.2533 71.9833 13.7333 71.53 13.28C71.0767 12.8267 70.6367 12.4933 70.21 12.28C69.7833 12.04 69.0767 11.6667 68.09 11.16C67.9033 12.4667 67.7433 13.7867 67.61 15.12ZM72.45 15.84L72.57 15.64L72.45 15.84ZM72.61 15.12L72.65 15.36L72.61 15.12ZM78.45 20.48C78.6633 20.4267 78.81 20.4 78.89 20.4C79.61 20.4 79.97 21.1867 79.97 22.76C79.97 23.5867 79.9033 24.3733 79.77 25.12C79.6633 25.8667 79.61 26.28 79.61 26.36C79.4233 27.72 79.17 28.92 78.85 29.96C78.53 31 78.05 31.96 77.41 32.84C76.5567 33.9867 75.7167 34.56 74.89 34.56C74.1967 34.56 73.3833 34.1733 72.45 33.4L68.53 30.16L66.73 28.64C66.5967 29.2267 66.3033 30.0133 65.85 31C65.4233 31.96 64.9033 32.8267 64.29 33.6C63.6767 34.3467 63.0367 34.72 62.37 34.72C62.21 34.72 62.0233 34.68 61.81 34.6C61.2767 34.3867 61.01 33.6533 61.01 32.4C61.01 31.2267 61.21 29.76 61.61 28L61.81 26.76C61.8367 26.4933 61.93 25.8267 62.09 24.76C62.25 23.6933 62.37 22.7067 62.45 21.8C62.53 20.8933 62.57 20.0533 62.57 19.28C62.57 18.4267 62.5433 17.7867 62.49 17.36C62.3833 16.48 62.29 15.8533 62.21 15.48C61.9433 13.7733 61.81 12.4533 61.81 11.52C61.81 10.4267 61.97 9.46666 62.29 8.64C62.8233 7.22667 63.5967 6.2 64.61 5.56C65.65 4.89333 66.81 4.56 68.09 4.56C69.61 4.56 71.1433 4.96 72.69 5.76C74.2367 6.53333 75.4367 7.48 76.29 8.6C77.0367 9.56 77.41 10.6667 77.41 11.92C77.41 13.2267 77.01 14.56 76.21 15.92C75.4367 17.28 74.45 18.5467 73.25 19.72C72.0767 20.8933 70.8633 21.8533 69.61 22.6C70.65 23.3733 71.65 24.1733 72.61 25C73.73 25.9067 74.57 26.5733 75.13 27C75.13 23.4 76.2367 21.2267 78.45 20.48ZM83.1197 7.04C82.6664 6.72 82.4397 6.21333 82.4397 5.52C82.4397 5.38667 82.4664 5.16 82.5197 4.84C82.7064 4.04 83.0664 3.29333 83.5997 2.6C84.1597 1.88 84.7997 1.30667 85.5197 0.879999C86.0797 0.559999 86.6397 0.399998 87.1997 0.399998C87.7864 0.399998 88.2397 0.599998 88.5597 0.999998C88.7997 1.32 88.9197 1.70667 88.9197 2.16C88.9197 2.56 88.7997 3.06667 88.5597 3.68C88.293 4.42667 87.8797 5.10667 87.3197 5.72C86.7864 6.33333 86.173 6.8 85.4797 7.12C84.9197 7.38667 84.4264 7.48 83.9997 7.4C83.5997 7.34667 83.3064 7.22667 83.1197 7.04ZM86.5197 30.12C86.5197 30.3067 86.4797 30.52 86.3997 30.76C86.3464 31 86.3064 31.1733 86.2797 31.28L86.1997 31.52C85.933 32.5067 85.453 33.44 84.7597 34.32C84.0664 35.2 83.1997 35.64 82.1597 35.64C82.053 35.64 81.973 35.6267 81.9197 35.6C81.493 35.5467 81.1464 35.3867 80.8797 35.12C80.4797 34.64 80.2797 33.8933 80.2797 32.88C80.2797 32.5067 80.3064 32.08 80.3597 31.6C80.333 31.52 80.333 31.44 80.3597 31.36C80.3597 31.2533 80.3597 31.1867 80.3597 31.16C80.4397 29.2667 80.7197 26.6933 81.1997 23.44L81.3597 22.2C81.6264 20.3867 81.7997 19.0267 81.8797 18.12L82.0397 16.32C82.0397 16.1333 82.053 15.9867 82.0797 15.88C82.133 15.5067 82.1464 15.2667 82.1197 15.16C82.093 15.1333 82.0797 15.1067 82.0797 15.08C82.0797 15.0267 82.0664 14.9867 82.0397 14.96C81.8797 14.7467 81.7997 14.4667 81.7997 14.12C81.7997 13.6933 81.8397 13.2667 81.9197 12.84C81.9464 12.76 81.9597 12.6267 81.9597 12.44C82.1464 11.2133 82.6664 10.16 83.5197 9.28C84.3997 8.4 85.2264 7.96 85.9997 7.96C86.293 7.96 86.573 8.02667 86.8397 8.16C87.5064 8.50667 87.8397 9.24 87.8397 10.36C87.7864 11.1067 87.7597 11.6667 87.7597 12.04L87.7197 13.08L87.5997 15.28C87.573 16.6667 87.493 18.08 87.3597 19.52C87.333 20.0533 87.173 21.8133 86.8797 24.8L86.7597 26.04L86.6797 26.84L86.4397 29.04C86.413 29.1467 86.3997 29.24 86.3997 29.32C86.4264 29.3733 86.4397 29.44 86.4397 29.52C86.493 29.6533 86.5064 29.76 86.4797 29.84L86.5197 30.12ZM108.466 0.639997C109.56 0.559999 110.106 0.959999 110.106 1.84C110.106 2.29333 109.96 2.81333 109.666 3.4C109.4 3.96 109.093 4.45333 108.746 4.88C108.4 5.30667 108.066 5.6 107.746 5.76C107.453 5.89333 107.12 5.96 106.746 5.96L105.626 5.92C105.253 5.92 104.96 5.94666 104.746 6C103.44 6.26667 102.053 6.61333 100.586 7.04C100.56 7.04 100.266 7.10667 99.7063 7.24C99.5996 7.26666 99.3329 7.33333 98.9063 7.44C98.5063 7.52 98.1463 7.61333 97.8263 7.72C97.5329 7.82667 97.3196 7.96 97.1863 8.12C96.9196 8.38667 96.7863 8.8 96.7863 9.36C96.7863 9.89333 96.8929 10.5333 97.1063 11.28C97.3463 12 97.4796 12.4267 97.5063 12.56C97.7996 13.3867 97.9596 13.9733 97.9863 14.32C99.0529 13.9467 100.32 13.5733 101.786 13.2C103.253 12.8 104.546 12.6 105.666 12.6C107.24 12.6 108.026 13.0667 108.026 14C108.026 14.4267 107.853 14.9733 107.506 15.64C107.133 16.28 106.693 16.76 106.186 17.08C105.68 17.4 105.16 17.6133 104.626 17.72C104.093 17.8 103.373 17.88 102.466 17.96C102.306 17.96 102.066 17.9733 101.746 18C101.453 18.0267 101.2 18.0533 100.986 18.08C100.853 18.1067 100.56 18.1467 100.106 18.2C99.6529 18.2267 99.2663 18.3067 98.9463 18.44C98.5463 18.6 98.2929 18.72 98.1862 18.8C98.1063 18.8533 98.0663 18.9733 98.0663 19.16C98.0663 19.32 98.0529 19.56 98.0263 19.88C97.9729 20.6267 97.8396 21.7467 97.6263 23.24L97.5063 24.08C97.2396 25.8933 96.9596 27.4667 96.6663 28.8C96.3729 30.1333 95.9596 31.4133 95.4263 32.64C95.0529 33.44 94.5196 34.28 93.8263 35.16C93.1596 36.04 92.4929 36.48 91.8263 36.48C91.6396 36.48 91.4663 36.44 91.3063 36.36C90.8263 36.12 90.5863 35.3867 90.5863 34.16C90.5863 33.36 90.7196 32.1333 90.9863 30.48L91.1063 29.56L91.7463 23.6C91.9063 22.4267 92.0129 21.5467 92.0663 20.96L91.3863 21.36C90.1596 22.16 89.2796 22.56 88.7463 22.56C88.5329 22.56 88.3596 22.5067 88.2263 22.4C87.9596 22.16 87.8262 21.88 87.8262 21.56C87.8262 21 88.1196 20.3867 88.7063 19.72C89.2929 19.0533 89.8663 18.52 90.4263 18.12C90.6663 17.9333 90.9329 17.7733 91.2263 17.64C91.7329 17.32 92.0929 17.0267 92.3063 16.76C92.5463 16.4667 92.6663 16.0133 92.6663 15.4C92.6663 14.9467 92.5729 14.44 92.3863 13.88C92.2529 13.5067 92.0529 13.1467 91.7863 12.8C91.5196 12.4267 91.3596 12.2 91.3063 12.12C90.9329 11.5867 90.6529 11.16 90.4663 10.84C90.2796 10.4933 90.1863 10.12 90.1863 9.72C90.1863 9.4 90.2663 9.04 90.4263 8.64C90.7996 7.78667 91.4263 7.06667 92.3063 6.48C93.2129 5.89333 94.3729 5.29333 95.7863 4.68L96.8663 4.2C99.0263 3.18666 101.04 2.37333 102.906 1.76C104.8 1.12 106.653 0.746664 108.466 0.639997ZM126.306 19.32C127.053 21.3733 127.426 23.0933 127.426 24.48C127.426 26.0267 127.013 27.48 126.186 28.84C125.386 30.1467 124.306 31.2667 122.946 32.2C121.613 33.1333 120.133 33.84 118.506 34.32C117.253 34.6933 115.906 34.88 114.466 34.88C112.919 34.88 111.439 34.6667 110.026 34.24C108.639 33.8133 107.506 33.16 106.626 32.28C105.746 31.3733 105.306 30.2667 105.306 28.96C105.306 28.2133 105.466 27.3867 105.786 26.48C106.026 25.7333 106.386 25 106.866 24.28C107.346 23.5333 107.879 23.16 108.466 23.16C109.026 23.16 109.306 23.3867 109.306 23.84C109.306 24.0267 109.253 24.2667 109.146 24.56C109.039 24.8267 108.973 25 108.946 25.08C108.919 25.16 108.866 25.2933 108.786 25.48C108.706 25.6667 108.666 25.8267 108.666 25.96C108.613 26.76 108.906 27.48 109.546 28.12C110.186 28.7333 110.973 29.24 111.906 29.64C112.839 30.0133 113.693 30.2667 114.466 30.4C115.266 30.56 116.119 30.64 117.026 30.64C118.173 30.64 119.266 30.4933 120.306 30.2C121.346 29.9067 122.239 29.4533 122.986 28.84C123.679 28.2533 124.026 27.4933 124.026 26.56C124.026 26.0267 123.933 25.48 123.746 24.92C123.586 24.36 123.346 23.6533 123.026 22.8C122.706 22.1067 122.466 21.44 122.306 20.8C121.453 22.0533 120.573 23.0933 119.666 23.92C118.759 24.7467 117.773 25.16 116.706 25.16C115.826 25.16 115.039 24.8267 114.346 24.16C113.679 23.4933 113.133 22.6933 112.706 21.76C112.066 20.2933 111.746 18.6133 111.746 16.72C111.746 14.6133 112.119 12.28 112.866 9.72C112.199 9.72 111.693 9.57333 111.346 9.28C111.026 8.96 110.866 8.53333 110.866 8C110.866 7.49333 110.999 6.96 111.266 6.4C111.586 5.68 112.159 5.06667 112.986 4.56C113.839 4.02667 114.679 3.76 115.506 3.76C116.413 3.76 117.106 4.08 117.586 4.72C117.826 5.04 117.946 5.46666 117.946 6C117.946 6.45333 117.879 6.92 117.746 7.4C117.613 7.88 117.413 8.53333 117.146 9.36C116.879 10.1067 116.706 10.6667 116.626 11.04C116.439 12.16 116.346 13.1733 116.346 14.08C116.346 15.8133 116.679 17.1867 117.346 18.2C117.719 18.76 118.106 19.04 118.506 19.04C118.986 19.04 119.453 18.72 119.906 18.08C120.386 17.4133 120.759 16.68 121.026 15.88C121.159 15.48 121.226 15 121.226 14.44C121.226 14.1467 121.199 13.68 121.146 13.04C121.093 12.4533 121.066 12 121.066 11.68C121.066 10.5867 121.359 9.68 121.946 8.96C122.559 8.24 123.093 7.88 123.546 7.88C124.079 7.88 124.479 8.24 124.746 8.96C125.013 9.65333 125.239 10.5333 125.426 11.6C125.506 12.0267 125.546 12.44 125.546 12.84C125.546 13.1867 125.519 13.68 125.466 14.32C125.386 14.8267 125.346 15.36 125.346 15.92C125.346 16.6133 125.573 17.4933 126.026 18.56L126.306 19.32Z" fill="#087D40"/>
</svg>
